<?xml version="1.0" standalone="no"?><!DOCTYPE svg PUBLIC "-//W3C//DTD SVG 1.1//EN" "http://www.w3.org/Graphics/SVG/1.1/DTD/svg11.dtd"><svg t="1635052052288" class="icon" viewBox="0 0 1024 1024" version="1.1" xmlns="http://www.w3.org/2000/svg" p-id="13914" xmlns:xlink="http://www.w3.org/1999/xlink" width="200" height="200"><defs><style type="text/css"></style></defs><path d="M94.6176 887.1936c6.656 6.5536 13.1584 6.5536 26.5216 6.5536H916.992c13.2096 0 19.9168-6.5536 19.9168-19.7632 6.6048-13.056-6.6048-32.768-19.968-32.768h-26.4704v-440.32c0-26.2656-13.2608-39.424-39.7312-39.424h-119.5008v466.7392l-6.5536 6.5536h-53.0944V131.2768c0-26.3168-26.4704-45.9264-52.992-45.9264H193.9968c-19.8656 0-33.1264 6.5536-39.7312 19.7632-13.2096 13.056-13.2096 26.2656-13.2096 39.3728v696.6784h-33.1264c-13.2096 0-19.9168 6.5536-19.9168 19.7632a23.6032 23.6032 0 0 0-2.6624 8.6528v2.4576c0.512 6.3488 4.8128 10.752 9.2672 15.1552zM300.2368 271.5136h212.224v52.736H300.2368v-52.736z m0 144.7936h212.224v52.5312H300.2368V416.256z m0 137.984h212.224v52.5312H300.2368v-52.5312z" fill="#EF8418" p-id="13915"></path></svg>