<?xml version="1.0" standalone="no"?><!DOCTYPE svg PUBLIC "-//W3C//DTD SVG 1.1//EN" "http://www.w3.org/Graphics/SVG/1.1/DTD/svg11.dtd"><svg t="1633951198034" class="icon" viewBox="0 0 1024 1024" version="1.1" xmlns="http://www.w3.org/2000/svg" p-id="2100" xmlns:xlink="http://www.w3.org/1999/xlink" width="200" height="200"><defs><style type="text/css"></style></defs><path d="M956.91 475.5c-5.44-33.73-33.81-62.55-66.8-70.35a90.24 90.24 0 0 0-41.73 0V187.29c0-15.58 0.87-31.63-4.06-46.66a91.69 91.69 0 0 0-87.18-63.43c-25.18-0.08-50.36 0-75.54 0H275.79c-13.82 0-27.66 0.3-40.79 5.42-25.67 10-44.19 28.66-54.27 54.27-4.12 10.45-5.42 21.9-5.42 33.08v234.85c-0.53-0.11-1.06-0.23-1.59-0.33-31.64-5.74-65.64 3.93-86.65 29.24a93.31 93.31 0 0 0-22 60.73v362.12c0.28 32.24 17.87 63.58 46.56 79a95.43 95.43 0 0 0 45.67 11.25h711.2c0.53 0 1.07 0 1.6-0.05a91.52 91.52 0 0 0 84.9-64.64c3.34-11 3.66-22.39 3.66-33.77V536.52c0.01-20.16 1.47-41.04-1.75-61.02z m-62.43 1.21l-0.09-0.06z m-1-1.16l-0.53-0.73c0.14 0.18 0.31 0.46 0.5 0.73zM776.54 143.28a11.48 11.48 0 0 1-1.41-1.1c0.09-0.07 0.69 0.43 1.41 1.1z m-532.32 2.83c1-1 2.13-1.89 3.16-2.86a60.58 60.58 0 0 1 6.34-3.66 64.58 64.58 0 0 1 7.62-2.1c5.23-0.34 10.52-0.18 15.75-0.18h422.7c19.34 0 38.69-0.16 58 0 1.48 0 2.94 0.06 4.4 0.16a64.8 64.8 0 0 1 7.75 2.12 60.31 60.31 0 0 1 6 3.43c0.37 0.24 0.73 0.5 1.1 0.75 1.1 1 2.28 2.23 2.39 2.34 1 1 1.9 2.13 2.86 3.16a58.85 58.85 0 0 1 3.66 6.34 62.85 62.85 0 0 1 2.15 7.85c0.67 8.95 0.14 18.13 0.14 27V430.1a26.39 26.39 0 0 0 0.24 3.56L765.88 446l-102.64 56-103.71 56.58-47.69 26-20.63-11.26-85.11-46.41-99.5-54.28-71.73-39.13a30.33 30.33 0 0 0 0.55-5.69V196.4c0-10.76-0.75-21.94 0.1-32.76a65.35 65.35 0 0 1 2.18-8 61.47 61.47 0 0 1 3.43-6c0.24-0.37 0.5-0.73 0.75-1.09 1.04-1.15 2.23-2.32 2.34-2.44z m-2.83 2.89a11.48 11.48 0 0 1-1.1 1.41c-0.07-0.06 0.43-0.66 1.1-1.41zM136.85 880.75a10.6 10.6 0 0 1 1.41 1.1c-0.09 0.07-0.69-0.43-1.41-1.1z m660.07 6H155.88c-1.58 0-3.16-0.06-4.74-0.16a65 65 0 0 1-7.73-2.12 59.48 59.48 0 0 1-6-3.43c-0.37-0.24-0.73-0.49-1.09-0.75-1.1-1-2.28-2.23-2.4-2.34-1-1-1.89-2.12-2.86-3.16a60.58 60.58 0 0 1-3.66-6.34 65.85 65.85 0 0 1-2.19-8.07c-1-12.36-0.09-25.17-0.09-37.46V535.17c0-14.08-0.11-28.16 0-42.24 0-1.47 0.07-2.93 0.16-4.39a63.44 63.44 0 0 1 2.09-7.67 58.34 58.34 0 0 1 3.68-6.36v-0.05q1.59-1.83 3.33-3.51c0.71-0.69 2.62-1.9 3.54-2.9a59.34 59.34 0 0 1 5.55-3.13 65.51 65.51 0 0 1 7.9-2.18 65.25 65.25 0 0 1 7.66 0 63.92 63.92 0 0 1 8.37 2.39c11 5.2 21.54 11.79 32.15 17.58l78.33 42.73 95.7 52.21L456.77 623c13.14 7.17 26.15 14.75 39.49 21.55 10.41 5.3 20.89 5.24 31.2 0 1.46-0.75 2.89-1.58 4.33-2.37l20.33-11.09L627.47 590l95.35-52 85.36-46.57Q830.8 479 853.4 466.72c1.17-0.64 2.34-1.26 3.53-1.85a64.07 64.07 0 0 1 7.67-2.12 63.32 63.32 0 0 1 7.67 0 64.41 64.41 0 0 1 7.94 2.2 60.23 60.23 0 0 1 5.32 3c0.4 0.25 0.83 0.57 1.26 0.9l-1.54-1.43c1.3 1.22 2.72 2.31 4 3.56 1.12 1.09 2.2 2.23 3.24 3.4 1.38 2.19 2.68 4.38 3.85 6.66a64.52 64.52 0 0 1 2.09 7.74c1 12.46 0.12 25.35 0.12 37.75v287.69c0 14.08 0.11 28.17 0 42.24 0 1.41-0.07 2.8-0.16 4.2a65.67 65.67 0 0 1-2.13 7.77 60.23 60.23 0 0 1-3.42 6l-0.76 1.1c-1 1.1-2.23 2.28-2.34 2.39-1 1-2.12 1.89-3.15 2.86a60 60 0 0 1-6.35 3.66 65 65 0 0 1-7.76 2.13q-2 0.13-4 0.15h-71.56zM892.58 875a11.48 11.48 0 0 1 1.1-1.41c0.07 0.09-0.43 0.69-1.1 1.41z" p-id="2101" fill="#ffffff"></path><path d="M886.79 468.82c4.25 3.93 2.2 1.73 0 0zM336.05 279.3h308.33c14.19 0 28.43 0.31 42.63 0h0.63c15.72 0 30.78-13.82 30.05-30.06s-13.2-30.05-30.05-30.05H379.31c-14.2 0-28.44-0.31-42.63 0h-0.63c-15.72 0-30.79 13.82-30.06 30.05s13.21 30.06 30.06 30.06zM336.05 421.11h308.33c14.19 0 28.43 0.31 42.63 0h0.63c15.72 0 30.78-13.82 30.05-30.06S704.49 361 687.64 361H379.31c-14.2 0-28.44-0.31-42.63 0h-0.63c-15.72 0-30.79 13.82-30.06 30.05s13.21 30.06 30.06 30.06z" p-id="2102" fill="#ffffff"></path></svg>