<?xml version="1.0" standalone="no"?><!DOCTYPE svg PUBLIC "-//W3C//DTD SVG 1.1//EN" "http://www.w3.org/Graphics/SVG/1.1/DTD/svg11.dtd"><svg t="1629892238034" class="icon" viewBox="0 0 1024 1024" version="1.1" xmlns="http://www.w3.org/2000/svg" p-id="11980" xmlns:xlink="http://www.w3.org/1999/xlink" width="200" height="200"><defs><style type="text/css"></style></defs><path d="M953.6 836.8h-28.8v-472c0-46.4-38.4-84.8-86.4-84.8H668.8v556.8h-51.2V158.4c0-22.4-8-43.2-24-57.6-16-14.4-36.8-24-57.6-22.4H184c-20.8 0-41.6 8-57.6 24-14.4 16-24 35.2-24 57.6v678.4H73.6c-11.2 0-20.8 4.8-28.8 12.8S32 868.8 32 880c0 22.4 17.6 41.6 41.6 41.6h876.8c22.4 0 41.6-19.2 41.6-41.6 0-11.2-4.8-22.4-11.2-28.8-6.4-11.2-16-14.4-27.2-14.4zM731.2 459.2c0-6.4 1.6-11.2 6.4-16 4.8-4.8 9.6-6.4 16-6.4H840c6.4 0 11.2 1.6 16 6.4 4.8 4.8 6.4 9.6 6.4 16v38.4c0 12.8-9.6 22.4-22.4 22.4h-86.4c-6.4 0-11.2-1.6-16-6.4-4.8-4.8-6.4-9.6-6.4-16v-38.4z m0 155.2c0-6.4 1.6-11.2 6.4-16 4.8-4.8 9.6-6.4 16-6.4H840c6.4 0 11.2 1.6 16 6.4 4.8 4.8 6.4 9.6 6.4 16v38.4c0 6.4-1.6 11.2-6.4 16-4.8 4.8-9.6 6.4-16 6.4h-86.4c-6.4 0-11.2-1.6-16-6.4-4.8-4.8-6.4-9.6-6.4-16v-38.4zM403.2 304c0-6.4 1.6-11.2 6.4-16 4.8-4.8 9.6-6.4 16-6.4H512c6.4 0 11.2 1.6 16 6.4 4.8 4.8 6.4 9.6 6.4 16v38.4c0 6.4-1.6 11.2-6.4 16-4.8 4.8-9.6 6.4-16 6.4h-86.4c-6.4 0-11.2-1.6-16-6.4-4.8-4.8-6.4-9.6-6.4-16V304z m0 155.2c0-6.4 1.6-11.2 6.4-16 4.8-4.8 9.6-6.4 16-6.4H512c6.4 0 11.2 3.2 16 6.4 4.8 4.8 6.4 9.6 6.4 16v38.4c0 6.4-1.6 11.2-6.4 16-4.8 4.8-9.6 6.4-16 6.4h-86.4c-6.4 0-11.2-1.6-16-6.4-4.8-4.8-6.4-9.6-6.4-16v-38.4z m0 156.8c0-6.4 1.6-11.2 6.4-16 4.8-4.8 9.6-6.4 16-6.4H512c6.4 0 11.2 1.6 16 6.4 4.8 4.8 6.4 9.6 6.4 16v38.4c0 6.4-1.6 11.2-6.4 16-4.8 4.8-9.6 6.4-16 6.4h-86.4c-6.4 0-11.2-1.6-16-6.4-4.8-4.8-6.4-9.6-6.4-16V616zM185.6 304c0-6.4 1.6-11.2 6.4-16 4.8-4.8 9.6-6.4 16-6.4h86.4c6.4 0 11.2 1.6 16 6.4 4.8 4.8 6.4 9.6 6.4 16v38.4c0 6.4-1.6 11.2-6.4 16-4.8 4.8-9.6 6.4-16 6.4H208c-6.4 0-11.2-1.6-16-6.4-4.8-4.8-6.4-9.6-6.4-16V304z m0 155.2c0-6.4 1.6-11.2 6.4-16 4.8-4.8 9.6-6.4 16-6.4h86.4c6.4 0 11.2 3.2 16 6.4 4.8 4.8 6.4 9.6 6.4 16v38.4c0 6.4-1.6 11.2-6.4 16-4.8 4.8-9.6 6.4-16 6.4H208c-6.4 0-11.2-1.6-16-6.4-4.8-4.8-6.4-9.6-6.4-16v-38.4z m0 156.8c0-6.4 1.6-11.2 6.4-16 4.8-4.8 9.6-6.4 16-6.4h86.4c6.4 0 11.2 1.6 16 6.4 4.8 4.8 6.4 9.6 6.4 16v38.4c0 6.4-1.6 11.2-6.4 16-4.8 4.8-9.6 6.4-16 6.4H208c-6.4 0-11.2-1.6-16-6.4-4.8-4.8-6.4-9.6-6.4-16V616z m0 0" p-id="11981" fill="#ffffff"></path></svg>