<?xml version="1.0" standalone="no"?><!DOCTYPE svg PUBLIC "-//W3C//DTD SVG 1.1//EN" "http://www.w3.org/Graphics/SVG/1.1/DTD/svg11.dtd"><svg t="1634028408309" class="icon" viewBox="0 0 1024 1024" version="1.1" xmlns="http://www.w3.org/2000/svg" p-id="34929" xmlns:xlink="http://www.w3.org/1999/xlink" width="200" height="200"><defs><style type="text/css"></style></defs><path d="M768 192H640c0-70.4-57.6-128-128-128s-128 57.6-128 128H256c-35.2 0-64 28.8-64 64v640c0 35.2 28.8 64 64 64h512c35.2 0 64-28.8 64-64V256c0-35.2-28.8-64-64-64z m-256-32c17.6 0 32 14.4 32 32s-14.4 32-32 32-32-14.4-32-32 14.4-32 32-32z m256 736H256V256h64v64h384v-64h64v640zM672 640H544v128h-64V640H352v-64h128V448h64v128h128v64z" p-id="34930" fill="#ffffff"></path></svg>