<?xml version="1.0" standalone="no"?><!DOCTYPE svg PUBLIC "-//W3C//DTD SVG 1.1//EN" "http://www.w3.org/Graphics/SVG/1.1/DTD/svg11.dtd"><svg t="1634293782922" class="icon" viewBox="0 0 1024 1024" version="1.1" xmlns="http://www.w3.org/2000/svg" p-id="22650" xmlns:xlink="http://www.w3.org/1999/xlink" width="200" height="200"><defs><style type="text/css"></style></defs><path d="M849.8944 566.1952l-71.3344-71.3792 36.9024-36.9152c12.3008-12.3072 31.9808-12.3072 41.8048 0l29.5168 29.536c12.2944 12.3008 12.2944 31.9936 0 41.8432L849.8944 566.1952 849.8944 566.1952zM643.3024 772.9344 571.968 701.5552 766.2592 509.5936 837.5936 580.9536 643.3024 772.9344ZM515.4048 832 559.6736 716.32 631.0016 787.6864 515.4048 832ZM702.4 192 691.3472 192 349.8688 192 278.0096 192 250.6688 192 128 313.6 128 339.2 128 402.1312 128 756.2688 128 832 203.7312 832 486.4 832 486.4 737.0688 222.9312 737.0688 222.9312 402.1312 349.8688 402.1312 349.8688 286.9312 678.5472 286.9312 678.5472 448.6656 767.0784 448.6656 767.0784 192Z" p-id="22651" fill="#1296db"></path></svg>