<?xml version="1.0" standalone="no"?><!DOCTYPE svg PUBLIC "-//W3C//DTD SVG 1.1//EN" "http://www.w3.org/Graphics/SVG/1.1/DTD/svg11.dtd"><svg t="1634407082249" class="icon" viewBox="0 0 1024 1024" version="1.1" xmlns="http://www.w3.org/2000/svg" p-id="3129" xmlns:xlink="http://www.w3.org/1999/xlink" width="200" height="200"><defs><style type="text/css"></style></defs><path d="M232.10666667 525.65333333L778.24 525.65333333 232.10666667 525.65333333Z" p-id="3130" fill="#ffffff"></path><path d="M331.09333333 546.13333333c-88.74666667 0-146.77333333 58.02666667-143.36 146.77333334 0 88.74666667 58.02666667 143.36 143.36 143.36l0 0c44.37333333 0 81.92-13.65333333 109.22666667-44.37333334 23.89333333-27.30666667 37.54666667-61.44 37.54666667-102.4C477.86666667 604.16 419.84 546.13333333 331.09333333 546.13333333zM416.42666667 771.41333333c-20.48 20.48-47.78666667 34.13333333-85.33333334 34.13333334l0 0c-68.26666667 0-109.22666667-44.37333333-112.64-112.64 0-68.26666667 44.37333333-112.64 112.64-112.64 68.26666667 0 112.64 44.37333333 112.64 112.64C443.73333333 723.62666667 433.49333333 750.93333333 416.42666667 771.41333333zM689.49333333 477.86666667L689.49333333 477.86666667c44.37333333 0 81.92-13.65333333 109.22666667-44.37333334 23.89333333-27.30666667 37.54666667-61.44 37.54666667-102.4 0-88.74666667-58.02666667-143.36-146.77333334-143.36-88.74666667 0-146.77333333 58.02666667-143.36 146.77333334C546.13333333 423.25333333 604.16 477.86666667 689.49333333 477.86666667zM689.49333333 221.86666667c68.26666667 0 112.64 44.37333333 112.64 112.64 0 30.72-10.24 58.02666667-27.30666666 78.50666666-20.48 20.48-47.78666667 34.13333333-85.33333334 34.13333334l0 0c-68.26666667 0-109.22666667-44.37333333-112.64-112.64C580.26666667 266.24 621.22666667 221.86666667 689.49333333 221.86666667zM689.49333333 546.13333333c-88.74666667 0-146.77333333 58.02666667-143.36 146.77333334 0 88.74666667 58.02666667 143.36 143.36 143.36l0 0c44.37333333 0 81.92-13.65333333 109.22666667-44.37333334 23.89333333-27.30666667 37.54666667-61.44 37.54666667-102.4C836.26666667 604.16 778.24 546.13333333 689.49333333 546.13333333zM774.82666667 771.41333333c-20.48 20.48-47.78666667 34.13333333-85.33333334 34.13333334l0 0c-68.26666667 0-109.22666667-44.37333333-112.64-112.64 0-68.26666667 44.37333333-112.64 112.64-112.64 68.26666667 0 112.64 44.37333333 112.64 112.64C802.13333333 723.62666667 791.89333333 750.93333333 774.82666667 771.41333333zM331.09333333 187.73333333c-88.74666667 0-146.77333333 58.02666667-143.36 146.77333334 0 88.74666667 58.02666667 143.36 143.36 143.36l0 0c44.37333333 0 81.92-13.65333333 109.22666667-44.37333334 23.89333333-27.30666667 37.54666667-61.44 37.54666667-102.4C477.86666667 245.76 419.84 187.73333333 331.09333333 187.73333333zM416.42666667 413.01333333c-20.48 20.48-47.78666667 34.13333333-85.33333334 34.13333334l0 0c-68.26666667 0-109.22666667-44.37333333-112.64-112.64 0-68.26666667 44.37333333-112.64 112.64-112.64 68.26666667 0 112.64 44.37333333 112.64 112.64C443.73333333 365.22666667 433.49333333 392.53333333 416.42666667 413.01333333z" p-id="3131" fill="#ffffff"></path></svg>