<?xml version="1.0" standalone="no"?><!DOCTYPE svg PUBLIC "-//W3C//DTD SVG 1.1//EN" "http://www.w3.org/Graphics/SVG/1.1/DTD/svg11.dtd"><svg t="1634013582019" class="icon" viewBox="0 0 1024 1024" version="1.1" xmlns="http://www.w3.org/2000/svg" p-id="17646" xmlns:xlink="http://www.w3.org/1999/xlink" width="200" height="200"><defs><style type="text/css"></style></defs><path d="M899.758374 823.202765 193.176403 823.202765c-55.072503 0-99.86445-34.172287-99.86445-76.194356L93.311952 216.253252c0-8.429996-6.821639-15.251356-15.23663-15.251356-8.430342 0-15.25198 6.821359-15.25198 15.251356l0 530.755156c0 58.818617 58.483322 106.665345 130.353061 106.665345L899.758374 853.673753c8.430342 0 15.25198-6.821359 15.25198-15.251356S908.189739 823.202765 899.758374 823.202765zM924.985952 593.621972c-4.863974 0-9.476204 1.060145-13.62895 2.948145L727.129778 464.984197c0.099265-1.039679 0.153502-2.092661 0.153502-3.157923 0-18.21178-14.737236-32.949436-32.949763-32.949436-18.21355 0-32.950786 14.736633-32.950786 32.949436 0 1.066285 0.055261 2.118244 0.153502 3.158946L477.311057 596.568071c-4.15377-1.888-8.764977-2.947122-13.629974-2.947122-3.627769 0-7.114316 0.594541-10.378797 1.676176L199.408593 369.624339c0.439016-2.145873 0.66927-4.368494 0.66927-6.64535 0-18.21178-14.75361-32.949436-32.950786-32.949436-18.196153 0-32.949763 14.736633-32.949763 32.949436s14.75361 32.949436 32.949763 32.949436c3.627769 0 7.114316-0.594541 10.378797-1.676176l253.894717 225.674832c-0.439016 2.145873-0.66927 4.368494-0.66927 6.644327 0 18.21178 14.75361 32.948413 32.950786 32.948413 18.212527 0 32.949763-14.736633 32.949763-32.948413 0-1.066285-0.055261-2.118244-0.153502-3.157923l184.227223-131.585921c4.15377 1.888 8.764977 2.947122 13.62895 2.947122s9.476204-1.060145 13.62895-2.947122l184.2262 131.585921c-0.099265 1.039679-0.153502 2.091638-0.153502 3.157923 0 18.21178 14.737236 32.948413 32.949763 32.948413 18.21355 0 32.950786-14.736633 32.950786-32.948413C957.936738 608.358605 943.199502 593.621972 924.985952 593.621972z" p-id="17647" fill="#ffffff"></path></svg>