<?xml version="1.0" standalone="no"?><!DOCTYPE svg PUBLIC "-//W3C//DTD SVG 1.1//EN" "http://www.w3.org/Graphics/SVG/1.1/DTD/svg11.dtd"><svg t="1629891258610" class="icon" viewBox="0 0 1024 1024" version="1.1" xmlns="http://www.w3.org/2000/svg" p-id="10540" xmlns:xlink="http://www.w3.org/1999/xlink" width="200" height="200"><defs><style type="text/css"></style></defs><path d="M322 228.38m27.5 0l325 0q27.5 0 27.5 27.5l0 0q0 27.5-27.5 27.5l-325 0q-27.5 0-27.5-27.5l0 0q0-27.5 27.5-27.5Z" p-id="10541" fill="#ffffff"></path><path d="M322 357.93m27.5 0l225 0q27.5 0 27.5 27.5l0 0q0 27.5-27.5 27.5l-225 0q-27.5 0-27.5-27.5l0 0q0-27.5 27.5-27.5Z" p-id="10542" fill="#ffffff"></path><path d="M926.57 412.93a55 55 0 0 0-30.41-42.58L807 326.77V152a55 55 0 0 0-55-55H272a55 55 0 0 0-55 55v174.77l-89.16 43.58a55 55 0 0 0-30.41 42.58H97V817a110 110 0 0 0 110 110h610a110 110 0 0 0 110-110V412.93zM807 388l64.15 31.36L807 451z m-535-26.9V152h480v326.18l-240 118.5-240-118.5zM217 388v63l-64.15-31.67z m655 429a55.06 55.06 0 0 1-55 55H207a55.06 55.06 0 0 1-55-55V480.27L512 658l360-177.73z" p-id="10543" fill="#ffffff"></path></svg>