<?xml version="1.0" standalone="no"?><!DOCTYPE svg PUBLIC "-//W3C//DTD SVG 1.1//EN" "http://www.w3.org/Graphics/SVG/1.1/DTD/svg11.dtd"><svg t="1629891076016" class="icon" viewBox="0 0 1036 1024" version="1.1" xmlns="http://www.w3.org/2000/svg" p-id="7069" xmlns:xlink="http://www.w3.org/1999/xlink" width="202.34375" height="200"><defs><style type="text/css"></style></defs><path d="M1018.576959 533.704092L536.284729 1015.070406a28.98587 28.98587 0 0 1-41.430805-0.36095c-11.346391-11.707341 4.504031-30.539525 16.054437-42.058544l468.827218-483.359387-45.511111-309.302927a28.98587 28.98587 0 0 1 25.988414-32.265809 30.06872 30.06872 0 0 1 32.768 26.365058L1035.839794 474.241471a90.347402 90.347402 0 0 1-17.262835 59.462621zM470.874277 913.659096s-58.0659 29.582222-94.16092 0-360.950192-345.256705-360.950191-345.256705-35.46728-58.69364 0-94.16092c30.931862-30.931862 486.498084-470.804598 486.498084-470.804597s16.886192-7.313165 94.16092 0c176.143693 16.650789 251.095785 26.804475 282.482758 62.773946 29.503755 33.850851 47.08046 282.482759 47.08046 282.482759s15.897502 85.780598-31.386973 141.241379-423.724138 423.724138-423.724138 423.724138z m390.171463-578.273594S857.059595 134.13223 831.824468 113.29128c-36.644291-30.257042-133.928215-37.805609-214.781057-44.961839-93.282084-8.254774-110.890176 11.440552-110.890176 11.440551s-390.767816 368.59292-417.666452 395.475862c-44.443954 44.428261 15.693487 97.079908 15.693486 97.079908S347.005587 810.537195 375.912989 839.444598c41.776061 41.776061 83.175479 0 83.175479 0S754.14171 549.381885 833.393817 457.480828c33.458513-38.919847 27.651923-122.095326 27.651923-122.095326zM651.349373 333.000092a54.927203 54.927203 0 1 1 54.927203-54.927203 54.927203 54.927203 0 0 1-54.927203 54.927203z" p-id="7070" fill="#ffffff"></path></svg>