<?xml version="1.0" standalone="no"?><!DOCTYPE svg PUBLIC "-//W3C//DTD SVG 1.1//EN" "http://www.w3.org/Graphics/SVG/1.1/DTD/svg11.dtd"><svg t="1629891212224" class="icon" viewBox="0 0 1228 1024" version="1.1" xmlns="http://www.w3.org/2000/svg" p-id="8772" xmlns:xlink="http://www.w3.org/1999/xlink" width="239.84375" height="200"><defs><style type="text/css"></style></defs><path d="M827.029757 261.913482a65.309414 65.309414 0 0 1 21.257815 48.413751 53.820364 53.820364 0 0 1-7.188336 27.463131 170.49259 170.49259 0 0 1-33.729886 36.863263 405.49589 405.49589 0 0 0-39.443691 39.136497 129.390052 129.390052 0 0 0-22.609468 37.969161 164.041519 164.041519 0 0 0-9.46157 58.612588c0 3.747765 0 9.52301 0.430071 16.772784l0.430071 9.52301h70.470271v-9.953081a208.031679 208.031679 0 0 1 4.116398-44.481671 64.633587 64.633587 0 0 1 10.444591-22.425151 256.752625 256.752625 0 0 1 32.50111-32.746865 266.52139 266.52139 0 0 0 54.188996-61.99172A117.962441 117.962441 0 0 0 922.997118 307.193856a121.771645 121.771645 0 0 0-40.918222-92.895422 152.675346 152.675346 0 0 0-107.947921-38.030599 150.279234 150.279234 0 0 0-103.401452 35.327293 153.965561 153.965561 0 0 0-47.123538 100.882462l-1.290214 9.891643 74.402352 9.092938 1.413092-9.645887a108.193676 108.193676 0 0 1 26.910182-62.053159 68.627107 68.627107 0 0 1 49.888282-18.984581 72.129117 72.129117 0 0 1 52.345833 21.134938z m-94.369953 301.910122h80.791985v81.713565h-80.853423v-81.713565zM1089.741943 0H446.662324a140.01896 140.01896 0 0 0-139.158816 140.51047v165.884682l-189.784365 4.730785A119.559849 119.559849 0 0 0 0.002458 431.423052v387.555768a119.129777 119.129777 0 0 0 118.392512 119.744166h54.49619l65.00222 85.215575 115.873522-85.215575h237.092218a120.051359 120.051359 0 0 0 118.822584-120.235676v-8.47855h67.582648l145.609888 107.333533 81.897882-107.333533h84.969821A140.203276 140.203276 0 0 0 1228.777882 669.682606V140.694786A140.01896 140.01896 0 0 0 1089.803382 0zM326.119455 776.770385a114.706186 114.706186 0 0 0 76.49127 31.333773h233.958841v10.567469a46.632027 46.632027 0 0 1-45.649007 46.570588H329.990098l-77.289974 56.830864-43.375773-56.830864H119.070796a46.079078 46.079078 0 0 1-45.341813-46.263395V431.054419a46.263395 46.263395 0 0 1 45.894762-46.447711l188.739905-4.792224v321.631967a120.604308 120.604308 0 0 0 18.062999 75.385372z m122.386032-39.99664h-1.96604A68.811424 68.811424 0 0 1 380.922839 669.682606V140.571909a66.599628 66.599628 0 0 1 65.739485-67.214016h643.141058a66.47675 66.47675 0 0 1 65.800924 67.152577v528.742065a66.845383 66.845383 0 0 1-66.108118 67.214016h-121.157257l-60.209996 78.887382-107.087778-78.825944h-3.317694s-321.754845 0.368633-349.156537 0z" p-id="8773" fill="#ffffff"></path></svg>