<?xml version="1.0" standalone="no"?><!DOCTYPE svg PUBLIC "-//W3C//DTD SVG 1.1//EN" "http://www.w3.org/Graphics/SVG/1.1/DTD/svg11.dtd"><svg t="1629891234270" class="icon" viewBox="0 0 1024 1024" version="1.1" xmlns="http://www.w3.org/2000/svg" p-id="9665" xmlns:xlink="http://www.w3.org/1999/xlink" width="200" height="200"><defs><style type="text/css"></style></defs><path d="M860.16 240.64H285.013333c-20.48 0-35.84 15.36-35.84 35.84v438.613333c0 20.48 15.36 35.84 35.84 35.84h59.733334L324.266667 894.293333c-1.706667 11.946667 11.946667 17.066667 20.48 8.533334l131.413333-151.893334h384c20.48 0 35.84-15.36 35.84-35.84V276.48c0-20.48-17.066667-35.84-35.84-35.84z m-455.68 290.133333c-25.6 0-46.08-20.48-46.08-46.08s20.48-46.08 46.08-46.08 46.08 20.48 46.08 46.08-20.48 46.08-46.08 46.08z m167.253333 0c-25.6 0-46.08-20.48-46.08-46.08s20.48-46.08 46.08-46.08c25.6 0 46.08 20.48 46.08 46.08s-20.48 46.08-46.08 46.08z m168.96 0c-25.6 0-46.08-20.48-46.08-46.08s20.48-46.08 46.08-46.08c25.6 0 46.08 20.48 46.08 46.08s-20.48 46.08-46.08 46.08z" fill="#ffffff" p-id="9666"></path><path d="M153.6 605.866667c-13.653333 0-25.6-11.946667-25.6-25.6V175.786667c0-32.426667 27.306667-59.733333 59.733333-59.733334h592.213334c13.653333 0 25.6 11.946667 25.6 25.6s-11.946667 25.6-25.6 25.6H187.733333c-5.12 0-8.533333 3.413333-8.533333 8.533334V580.266667c0 15.36-11.946667 25.6-25.6 25.6z" fill="#ffffff" p-id="9667"></path></svg>