<?xml version="1.0" standalone="no"?><!DOCTYPE svg PUBLIC "-//W3C//DTD SVG 1.1//EN" "http://www.w3.org/Graphics/SVG/1.1/DTD/svg11.dtd"><svg t="1629891001078" class="icon" viewBox="0 0 1024 1024" version="1.1" xmlns="http://www.w3.org/2000/svg" p-id="4328" xmlns:xlink="http://www.w3.org/1999/xlink" width="200" height="200"><defs><style type="text/css"></style></defs><path d="M534.256785 92.517159a42.881722 42.881722 0 0 0-44.557274 0L184.407717 277.541549a43.129952 43.129952 0 0 0-20.758229 36.924203v377.154362c0 15.079969 7.881301 29.042903 20.789258 36.831117l305.260765 185.117476c13.714704 8.284674 30.873598 8.284674 44.557274 0l305.291795-185.055419a43.129952 43.129952 0 0 0 20.758228-36.924203V314.465752a43.129952 43.129952 0 0 0-20.789257-36.862145L534.287814 92.517159zM578.78303 18.668753l305.322823 185.02439A129.451912 129.451912 0 0 1 946.380539 314.434724v377.18539c0 45.301964-23.612873 87.283852-62.305714 110.710552l-305.291795 185.024389a128.862366 128.862366 0 0 1-133.640792 0l-305.260766-184.99336A129.451912 129.451912 0 0 1 77.575758 691.651142V314.465752c0-45.301964 23.612873-87.283852 62.305714-110.710552L445.173266 18.730811a128.862366 128.862366 0 0 1 133.640793 0z m-156.043544 635.282468c52.966063-24.760936 78.844034-81.946908 77.69597-171.588945v-166.283029c1.148063-11.790922 8.781134-18.275929 22.930241-19.455021 14.118078 1.179092 21.751148 7.664099 22.961269 19.455021v164.514391c3.537277 109.686604-29.415248 180.432136-98.857573 212.267625-20.013539 9.432738-35.310709 7.664099-45.922538-5.274886-5.864432-14.180135 1.210121-25.381511 21.192631-33.635156zM309.918979 355.020318c-12.938985-1.179092-19.423993-9.432738-19.423993-24.760936 1.179092-14.149106 8.253645-21.813206 21.192631-22.992298h95.351325c14.087049 1.179092 21.72012 8.843192 22.930241 22.992298-1.179092 15.328199-8.812163 23.581844-22.96127 24.760936h-22.899211v88.431916h22.961269c12.938985 0 27.429408 5.336944 27.429408 15.979802 2.358184-20.075596 3.537277-53.059149 3.537277-99.074774 0-16.507291 7.043524-25.971057 21.192631-28.329242 15.266141 0 23.488758 7.664099 24.698878 23.023327 1.179092 77.820085-3.506248 138.574363-14.118077 182.200774-5.895461 17.686383-15.886716 26.529575-30.035823 26.529575-14.118078-4.68534-19.392964-15.886716-15.855687-33.604128 3.537277-16.507291 6.453978-33.014582 8.812163-49.521872-1.148063 8.253645-15.04894 12.380468-25.66077 12.380468h-22.961269v93.768859a13.621618 13.621618 0 0 0 5.305915-1.768639c18.834447-9.463766 31.183886-11.790922 37.079347-7.074553 17.655354 14.149106 15.29717 28.85673-7.074554 44.215958-27.057063 12.970014-59.420041 24.202419-97.119963 33.604127-16.445233 3.537277-27.615581-0.589546-33.511041-12.380468-3.537277-14.149106 2.358184-24.760936 17.655354-31.835489 9.680968-2.761558 19.144734-6.298835 28.236155-10.61183v-107.917965h-19.392964c-14.149106-1.179092-21.813206-9.432738-22.961269-24.760937 2.358184-15.328199 10.61183-23.581844 24.729908-24.760936h17.624325v-88.431915l-24.760936-0.062058z m275.721403 1.768639c-12.970014-1.148063-20.013539-9.432738-21.192631-24.760937 1.179092-15.328199 8.222617-23.581844 21.192631-24.760936h104.163488c15.266141 1.179092 23.519787 9.432738 24.698879 24.760936 0 15.328199-7.664099 23.581844-22.96127 24.760937H656.261799v109.686603h31.742404c14.087049 1.179092 21.72012 8.843192 22.93024 22.992298-1.179092 15.328199-8.812163 23.581844-22.961269 24.791965H656.261799v127.341958h33.573099c16.445233 1.179092 25.877971 8.253645 28.236156 21.22366-1.179092 15.328199-9.991255 23.581844-26.498546 24.791965h-135.936919c-15.29717-1.179092-23.519787-9.463766-24.729908-24.822994 1.210121-12.938985 10.022284-20.013539 26.498546-21.192631h49.428786v-127.341958h-15.886716c-14.149106-1.210121-21.782177-9.463766-22.961269-24.791965 2.389213-14.149106 10.61183-21.813206 24.698879-22.992298h14.149106v-109.686603h-21.161602z" p-id="4329" fill="#ffffff"></path></svg>