<?xml version="1.0" standalone="no"?><!DOCTYPE svg PUBLIC "-//W3C//DTD SVG 1.1//EN" "http://www.w3.org/Graphics/SVG/1.1/DTD/svg11.dtd"><svg t="1629891193973" class="icon" viewBox="0 0 1024 1024" version="1.1" xmlns="http://www.w3.org/2000/svg" p-id="7929" xmlns:xlink="http://www.w3.org/1999/xlink" width="200" height="200"><defs><style type="text/css"></style></defs><path d="M734.393 63.227H182.97s-69.385 0.878-78.877 79.754v733.283s-0.728 84.508 93.485 84.508h641.99s74.494-4.168 80.339-80.855v-593.05l-57.242 61.348-0.434 554.8-700.895-0.728v-782.4h513.173l59.884-56.66z m69.568 38.855l86.548 67.38 18.077-24.103s13.696-18.076 0-39.988c0 0-12.602-20.816-33.964-32.865 0 0-29.032-15.885-48.201 3.285l-22.46 26.291z m59.157 102.983L715.772 400.62s-13.146 24.102-36.154 35.057L614.431 466.9s-17.528 8.763-21.361-15.336l11.504-71.759s-1.098-13.146 16.43-36.148l156.118-206.51 85.996 67.918zM317.542 572.073h386.176s12.602-3.289 12.053 18.072l0.018 17.735s-2.757 9.862-17.546 7.671l-376.867 0.319s-13.143 0.774-14.244-11.823v-23.21s2.194-8.764 10.41-8.764z m0 143.515h386.176s12.602-3.29 12.053 18.076l0.018 17.73s-2.757 9.862-17.546 7.671l-376.867 0.318s-13.143 0.775-14.244-11.822v-23.21c0 0.001 2.194-8.763 10.41-8.763z m0 0" fill="#ffffff" p-id="7930"></path></svg>