<?xml version="1.0" standalone="no"?><!DOCTYPE svg PUBLIC "-//W3C//DTD SVG 1.1//EN" "http://www.w3.org/Graphics/SVG/1.1/DTD/svg11.dtd"><svg t="1629891029275" class="icon" viewBox="0 0 1024 1024" version="1.1" xmlns="http://www.w3.org/2000/svg" p-id="5185" xmlns:xlink="http://www.w3.org/1999/xlink" width="200" height="200"><defs><style type="text/css"></style></defs><path d="M515.811556 227.555556l0.967111-1.564445 85.333333-128a28.444444 28.444444 0 0 1 47.331556 31.573333L584.106667 227.555556H739.555556a56.888889 56.888889 0 0 1 56.888888 56.888888v145.777778l130.673778-57.998222A28.444444 28.444444 0 0 1 967.111111 398.222222v317.44a28.444444 28.444444 0 0 1-39.992889 26.026667L796.444444 683.662222V853.333333a56.888889 56.888889 0 0 1-56.888888 56.888889H113.777778a56.888889 56.888889 0 0 1-56.888889-56.888889V284.444444a56.888889 56.888889 0 0 1 56.888889-56.888888h155.448889L203.889778 129.564444a28.444444 28.444444 0 0 1 47.331555-31.573333l85.333334 128 0.967111 1.564445h178.289778zM341.333333 682.666667a28.444444 28.444444 0 0 0 42.552889 24.689777l199.111111-113.777777a28.444444 28.444444 0 0 0 0-49.379556l-199.111111-113.777778A28.444444 28.444444 0 0 0 341.333333 455.111111v227.555556z m170.211556-113.777778L398.222222 633.656889v-129.536L511.544889 568.888889z" fill="#ffffff" p-id="5186"></path></svg>