<?xml version="1.0" standalone="no"?><!DOCTYPE svg PUBLIC "-//W3C//DTD SVG 1.1//EN" "http://www.w3.org/Graphics/SVG/1.1/DTD/svg11.dtd"><svg t="1629892220186" class="icon" viewBox="0 0 1024 1024" version="1.1" xmlns="http://www.w3.org/2000/svg" p-id="21279" xmlns:xlink="http://www.w3.org/1999/xlink" width="200" height="200"><defs><style type="text/css"></style></defs><path d="M369.033846 23.552H160.846769A123.667692 123.667692 0 0 0 37.179077 147.337846v208.344616a123.746462 123.746462 0 0 0 123.667692 123.746461h208.147693a123.667692 123.667692 0 0 0 123.667692-123.746461V147.298462A123.667692 123.667692 0 0 0 369.033846 23.630769z m58.604308 332.209231a58.683077 58.683077 0 0 1-58.564923 58.564923H160.807385a58.683077 58.683077 0 0 1-58.643693-58.564923V147.259077c0-32.374154 26.387692-58.643692 58.683077-58.643692H369.033846c32.295385 0 58.564923 26.466462 58.564923 58.683077v208.462769zM889.540923 23.552h-208.305231a123.667692 123.667692 0 0 0-123.628307 123.785846v208.344616a123.746462 123.746462 0 0 0 123.667692 123.746461h208.226461a123.825231 123.825231 0 0 0 123.628308-123.667692V147.259077A123.667692 123.667692 0 0 0 889.540923 23.630769z m58.525539 332.209231a58.683077 58.683077 0 0 1-58.486154 58.564923h-208.344616a58.604308 58.604308 0 0 1-58.564923-58.564923V147.259077c0-32.374154 26.387692-58.643692 58.564923-58.643692h208.344616c32.216615 0 58.486154 26.387692 58.486154 58.683077v208.462769zM369.033846 544.571077H160.807385a123.825231 123.825231 0 0 0-123.667693 123.746461v208.423385a123.785846 123.785846 0 0 0 123.628308 123.746462h208.187077a123.825231 123.825231 0 0 0 123.628308-123.628308V668.356923a123.667692 123.667692 0 0 0-123.588923-123.746461z m58.683077 332.288a58.683077 58.683077 0 0 1-58.683077 58.604308H160.807385a58.683077 58.683077 0 0 1-58.643693-58.604308V668.356923c0-32.295385 26.387692-58.683077 58.683077-58.683077h208.265846c32.295385 0 58.604308 26.505846 58.604308 58.683077l-0.078769 208.541539z m461.863385-332.288h-208.305231a123.667692 123.667692 0 0 0-123.628308 123.746461v208.423385a123.785846 123.785846 0 0 0 123.667693 123.746462h208.226461a123.825231 123.825231 0 0 0 123.628308-123.628308V668.356923a123.746462 123.746462 0 0 0-123.588923-123.746461z m58.525538 332.288a58.525538 58.525538 0 0 1-58.525538 58.604308h-208.305231a58.604308 58.604308 0 0 1-58.564923-58.604308V668.356923c0-32.295385 26.387692-58.683077 58.564923-58.683077h208.344615c32.295385 0 58.486154 26.387692 58.486154 58.683077v208.541539z" fill="#ffffff" p-id="21280"></path></svg>