<?xml version="1.0" standalone="no"?><!DOCTYPE svg PUBLIC "-//W3C//DTD SVG 1.1//EN" "http://www.w3.org/Graphics/SVG/1.1/DTD/svg11.dtd"><svg t="1629892306314" class="icon" viewBox="0 0 1112 1024" version="1.1" xmlns="http://www.w3.org/2000/svg" p-id="22232" xmlns:xlink="http://www.w3.org/1999/xlink" width="217.1875" height="200"><defs><style type="text/css"></style></defs><path d="M1092.675911 163.560702l-48.457571 48.510473-143.574071-143.679873 48.457572-48.563374a67.713637 67.713637 0 0 1 95.698413 0l47.611151 47.611151a67.925242 67.925242 0 0 1 0 95.857117z m-502.138937 502.562148l-5.924943 5.872042-6.718463 7.03587-176.531567 32.058175 32.851694-175.632246 6.982969-7.03587 5.924943-5.977844 405.805709-406.228919 143.468268 143.57407-405.805709 406.281821z m-247.630886 104.003914l287.730055-52.901279 366.923269-373.218521v430.616408a249.429529 249.429529 0 0 1-249.376628 249.376628h-498.859058a249.376628 249.376628 0 0 1-249.376627-249.376628V275.817216A249.376628 249.376628 0 0 1 249.323726 26.440588h498.806157a248.63601 248.63601 0 0 1 81.467969 13.913036L396.283479 480.38646l-53.430292 289.846106z" fill="#ffffff" p-id="22233"></path></svg>