<?xml version="1.0" standalone="no"?><!DOCTYPE svg PUBLIC "-//W3C//DTD SVG 1.1//EN" "http://www.w3.org/Graphics/SVG/1.1/DTD/svg11.dtd"><svg t="1629891583677" class="icon" viewBox="0 0 1024 1024" version="1.1" xmlns="http://www.w3.org/2000/svg" p-id="12706" xmlns:xlink="http://www.w3.org/1999/xlink" width="200" height="200"><defs><style type="text/css"></style></defs><path d="M782.29333333 170.98666667c0-50.02666667-40.96-91.09333333-91.09333333-91.09333334H145.70666667c-50.02666667 0-91.09333333 40.96-91.09333334 91.09333334v661.76c0 50.45333333 40.85333333 91.30666667 91.30666667 91.30666666H691.2c50.02666667 0 91.09333333-40.96 91.09333333-91.09333333V669.44l-144 144c-9.49333333 9.49333333-21.44 15.89333333-34.24 18.45333333-3.94666667 1.28-8.10666667 2.02666667-12.48 2.02666667h-94.82666666c-22.4 0-40.53333333-18.13333333-40.53333334-40.53333333V698.66666667c0-5.76 1.17333333-11.09333333 3.41333334-16.10666667 3.09333333-11.41333333 8.74666667-21.97333333 17.38666666-30.50666667l58.24-58.24h-334.93333333c-16.64 0-30.08-13.44-30.08-30.08s13.44-30.08 30.08-30.08h394.98666667L782.29333333 346.66666667V170.98666667zM204.8 235.2h238.29333333c16.64 0 30.08 13.44 30.08 30.08s-13.44 30.08-30.08 30.08H204.8c-16.64 0-30.08-13.44-30.08-30.08s13.44-30.08 30.08-30.08z m427.41333333 209.17333333H204.8c-16.64 0-30.08-13.44-30.08-30.08s13.44-30.08 30.08-30.08h427.41333333c16.64 0 30.08 13.44 30.08 30.08s-13.54666667 30.08-30.08 30.08zM817.06666667 359.89333333l113.38666666 113.38666667 44.90666667-44.90666667c0.64-0.64 0.64-1.70666667 0-2.45333333l-110.93333333-110.93333333c-0.64-0.64-1.70666667-0.64-2.45333334 0L817.06666667 359.89333333z" fill="#ffffff" p-id="12707"></path><path d="M907.09333333 496.64L793.70666667 383.25333333 500.90666667 676.05333333c-5.33333333 5.33333333-8.42666667 11.84-9.49333334 18.77333334-0.74666667 1.06666667-1.28 2.34666667-1.28 3.84v94.82666666c0 3.62666667 2.98666667 6.61333333 6.61333334 6.61333334h94.82666666c1.38666667 0 2.45333333-0.42666667 3.41333334-1.06666667 7.04-0.96 13.86666667-4.16 19.30666666-9.6l292.8-292.8z" fill="#ffffff" p-id="12708"></path></svg>