<?xml version="1.0" standalone="no"?><!DOCTYPE svg PUBLIC "-//W3C//DTD SVG 1.1//EN" "http://www.w3.org/Graphics/SVG/1.1/DTD/svg11.dtd"><svg t="1629891854749" class="icon" viewBox="0 0 1024 1024" version="1.1" xmlns="http://www.w3.org/2000/svg" p-id="18052" xmlns:xlink="http://www.w3.org/1999/xlink" width="200" height="200"><defs><style type="text/css"></style></defs><path d="M513.365333 1007.616c-274.090667 0-496.981333-223.232-496.981333-496.981333S239.274667 13.653333 513.365333 13.653333 1010.346667 236.544 1010.346667 510.634667s-222.890667 496.981333-496.981334 496.981333z m0.341334-948.565333c-248.832 0-451.242667 202.410667-451.242667 451.242666 0.341333 249.173333 202.069333 450.901333 451.242667 451.242667 248.832 0 451.242667-202.410667 451.242666-451.242667S762.197333 59.050667 513.706667 59.050667z" p-id="18053" fill="#ffffff"></path><path d="M225.28 271.701333C225.28 242.346667 249.173333 218.453333 278.528 218.453333h346.794667l186.709333 133.461334v106.837333H225.28V271.701333z m264.533333 130.048h20.821334l8.874666-51.2h49.152l3.754667-21.504h-49.152l8.533333-50.858666h-20.821333l-8.533333 50.858666h-49.152l-3.754667 21.504h49.152l-8.874667 51.2z m-212.309333 30.037334l29.354667-56.661334H382.293333l11.264 56.661334h27.306667L378.88 245.077333h-25.6l-101.034667 186.709334h25.258667z m90.794667-128.341334l9.898666 51.882667H317.44l29.013333-54.613333c6.144-11.946667 11.605333-23.552 15.701334-35.84 1.024 10.24 3.072 22.869333 6.144 38.570666zM759.125333 805.546667H278.528C249.173333 805.546667 225.28 781.653333 225.28 752.298667v-266.922667h587.093333v266.922667c0 29.354667-23.893333 53.248-53.248 53.248z m-330.410666-293.546667l-53.930667 72.021333 10.581333 7.850667h-26.624v-53.248H305.493333v26.624h26.624v53.248h53.248v-26.624l10.581334 7.850667 42.666666-57.002667v-4.437333h3.413334l20.138666-26.624h-33.450666v0.341333z m0 133.461333l-53.930667 72.021334 10.581333 7.850666h-26.624v-53.248H305.493333v26.624h26.624v53.248h53.248v-26.624l10.581334 7.850667 42.666666-57.002667v-4.437333h3.413334l20.138666-26.624h-33.450666v0.341333z m303.445333-106.837333h-240.298667v26.624h240.298667v-26.624z m0 133.461333h-240.298667v26.624h240.298667v-26.624z" p-id="18054" fill="#ffffff"></path></svg>