<?xml version="1.0" standalone="no"?><!DOCTYPE svg PUBLIC "-//W3C//DTD SVG 1.1//EN" "http://www.w3.org/Graphics/SVG/1.1/DTD/svg11.dtd"><svg t="1629892099426" class="icon" viewBox="0 0 1025 1024" version="1.1" xmlns="http://www.w3.org/2000/svg" p-id="19657" xmlns:xlink="http://www.w3.org/1999/xlink" width="200.1953125" height="200"><defs><style type="text/css"></style></defs><path d="M147.2 807.2c-14.4 0-28-8.8-33.6-23.2L24 538.4c-6.4-18.4 2.4-39.2 21.6-45.6l840.8-306.4c18.4-6.4 38.4 3.2 45.6 21.6l89.6 245.6c3.2 8.8 2.4 18.4-1.6 27.2s-11.2 15.2-20 18.4L159.2 804.8c-4 1.6-8 2.4-12 2.4z m751.2-606.4c-2.4 0-4.8 0-6.4 0.8L51.2 508c-10.4 4-15.2 15.2-12 24.8l89.6 245.6c4 10.4 15.2 15.2 24.8 12l840.8-306.4c4.8-1.6 8.8-5.6 11.2-10.4s2.4-10.4 0.8-15.2l-89.6-245.6c-3.2-7.2-10.4-12-18.4-12z" fill="#ffffff" p-id="19658"></path><path d="M147.2 808.8c-15.2 0-29.6-9.6-35.2-24L22.4 539.2c-3.2-9.6-2.4-20.8 1.6-29.6s12-15.2 20.8-18.4l840.8-306.4c19.2-6.4 40 3.2 48 22.4l89.6 245.6c3.2 8.8 2.4 19.2-1.6 28.8-4 8.8-11.2 16-20.8 19.2L160 806.4c-4.8 1.6-8.8 2.4-12.8 2.4z m751.2-623.2c-4 0-7.2 0.8-11.2 1.6L46.4 494.4c-8.8 3.2-15.2 8.8-19.2 16.8s-4.8 18.4-1.6 27.2L115.2 784c5.6 13.6 17.6 22.4 32 22.4 4 0 8-0.8 11.2-2.4l840.8-305.6c8.8-3.2 15.2-9.6 19.2-17.6 4-8.8 4.8-17.6 1.6-25.6l-89.6-245.6c-5.6-15.2-18.4-24-32-24zM147.2 792.8c-8.8 0-16.8-5.6-20-14.4L37.6 533.6c-4-11.2 2.4-22.4 12.8-27.2L891.2 200c1.6-0.8 4-0.8 7.2-0.8 8.8 0 16 4.8 20 12.8L1008 457.6c1.6 5.6 1.6 12-0.8 16.8-2.4 5.6-7.2 9.6-12 11.2L154.4 792c-2.4 0.8-4.8 0.8-7.2 0.8z m751.2-590.4c-2.4 0-4.8 0-5.6 0.8L52 509.6c-9.6 3.2-14.4 13.6-11.2 22.4l89.6 245.6c3.2 9.6 13.6 14.4 22.4 11.2l840.8-306.4c4-1.6 8-4.8 10.4-9.6 2.4-4 2.4-8.8 0.8-13.6l-89.6-245.6c-3.2-7.2-9.6-11.2-16.8-11.2z" fill="#ffffff" p-id="19659"></path><path d="M820.8 564.8c-31.2 136-152.8 237.6-297.6 237.6-68.8 0-132.8-23.2-184-61.6l-8.8 3.2c53.6 41.6 120 66.4 192.8 66.4 150.4 0 276.8-106.4 307.2-248.8l-9.6 3.2z" fill="#ffffff" p-id="19660"></path><path d="M523.2 811.2c-70.4 0-136.8-23.2-193.6-66.4l-0.8-0.8 10.4-4c53.6 40 116.8 61.6 183.2 61.6 140.8 0 265.6-100 296.8-236.8v-0.8l11.2-4v1.6c-15.2 69.6-53.6 132.8-108.8 178.4-55.2 45.6-126.4 71.2-198.4 71.2zM332 744c55.2 42.4 121.6 65.6 191.2 65.6 146.4 0 275.2-104 306.4-247.2l-8 2.4c-15.2 66.4-52.8 126.4-106.4 169.6-54.4 44-122.4 68-192 68-66.4 0-130.4-21.6-184-61.6l-7.2 3.2zM224.8 427.2c31.2-136 152.8-237.6 297.6-237.6 68.8 0 132.8 23.2 184 61.6l8.8-3.2c-53.6-41.6-120-66.4-192.8-66.4-150.4 0-276.8 106.4-307.2 248.8l9.6-3.2z" fill="#ffffff" p-id="19661"></path><path d="M214.4 431.2v-1.6c15.2-69.6 53.6-132.8 108.8-178.4 56-45.6 126.4-71.2 199.2-71.2 70.4 0 136.8 23.2 193.6 66.4l0.8 0.8-10.4 4c-53.6-40-116.8-61.6-183.2-61.6-140.8 0-265.6 100-296.8 236.8v0.8l-12 4z m308-248.8c-146.4 0-275.2 104-306.4 246.4l8-2.4c15.2-66.4 52.8-126.4 106.4-169.6 54.4-44 122.4-68 192-68 66.4 0 130.4 21.6 184 61.6l7.2-2.4c-56-43.2-121.6-65.6-191.2-65.6z" fill="#ffffff" p-id="19662"></path><path d="M112 468.8c14.4-214.4 192.8-384 411.2-384 116.8 0 221.6 48.8 296.8 127.2l16-5.6C757.6 120.8 646.4 68 522.4 68c-228.8 0-416 180-427.2 406.4l16.8-5.6z" fill="#ffffff" p-id="19663"></path><path d="M93.6 476.8v-2.4c11.2-228.8 200-408 428.8-408 120.8 0 232.8 49.6 314.4 139.2l1.6 1.6-19.2 6.4-0.8-0.8c-78.4-81.6-183.2-126.4-296-126.4-215.2 0-395.2 168-409.6 382.4v0.8l-19.2 7.2zM522.4 69.6C296 69.6 109.6 246.4 96.8 472l13.6-4.8c15.2-216 196-384.8 412.8-384.8 112.8 0 218.4 44.8 297.6 127.2l12.8-4.8C752 118.4 641.6 69.6 522.4 69.6z" fill="#ffffff" p-id="19664"></path><path d="M933.6 523.2c-14.4 214.4-192.8 384.8-411.2 384.8-116.8 0-221.6-48.8-296.8-127.2l-16 5.6c78.4 84 189.6 136.8 313.6 136.8 228.8 0 416-180.8 427.2-406.4l-16.8 6.4z" fill="#ffffff" p-id="19665"></path><path d="M523.2 924.8c-120 0-232-48.8-314.4-137.6l-1.6-1.6 19.2-6.4 0.8 0.8c78.4 81.6 183.2 126.4 296 126.4 215.2 0 395.2-168 409.6-383.2v-0.8l20-8v2.4c-5.6 109.6-52.8 212.8-132.8 288.8-80.8 76.8-186.4 119.2-296.8 119.2zM212 787.2c81.6 86.4 192 134.4 310.4 134.4 226.4 0 412.8-176.8 425.6-402.4l-13.6 4.8c-15.2 216-196 385.6-412.8 385.6-112.8 0-218.4-44.8-297.6-127.2l-12 4.8z" fill="#ffffff" p-id="19666"></path><path d="M396 552.8l16 44-8.8 4.8-20.8-56.8 29.6-10.4-6.4-17.6-29.6 10.4-9.6-25.6 24-8.8-6.4-17.6-44 16c-0.8-5.6-0.8-11.2-1.6-16l-19.2 2.4c3.2 18.4 3.2 36 1.6 53.6l19.2 4c0.8-8 1.6-16 1.6-24.8l8-3.2 9.6 25.6-31.2 12 6.4 17.6 30.4-11.2 21.6 59.2-9.6 4.8-17.6-49.6-16.8 6.4 24.8 68 51.2-26.4 2.4 6.4 16.8-6.4-24.8-67.2-16.8 6.4z" fill="#ffffff" p-id="19667"></path><path d="M468.8 532l35.2-12.8-6.4-17.6-9.6 3.2-19.2-52.8-31.2 12-9.6-25.6-17.6 6.4 9.6 25.6-20.8 8 6.4 17.6 20.8-8 4.8 13.6c2.4 6.4 4.8 13.6 7.2 21.6l-24 8.8 6.4 17.6 21.6-8c4.8 27.2 3.2 49.6-7.2 67.2l16.8 11.2c10.4-18.4 13.6-41.6 10.4-69.6 16 20 35.2 34.4 56 44.8l7.2-20c-20.8-8.8-40-23.2-56.8-43.2zM456 516.8c-2.4-8.8-4.8-16.8-8-26.4l-3.2-9.6 13.6-4.8 12.8 35.2-15.2 5.6zM717.6 456L632 488v-15.2L721.6 440l-6.4-16.8-69.6 25.6c4.8-5.6 9.6-12.8 16-21.6l59.2-21.6-6.4-17.6-36.8 13.6c7.2-14.4 13.6-28.8 17.6-44.8l-17.6-5.6c-3.2 9.6-6.4 19.2-10.4 28l-3.2-8.8-39.2 14.4-5.6-16.8-20.8 8 5.6 16.8-46.4 16.8 6.4 17.6 46.4-16.8 4.8 14.4-60 21.6 6.4 17.6 64.8-24c-16.8 20-37.6 39.2-61.6 56.8l13.6 14.4c11.2-8 21.6-16.8 32.8-27.2l2.4 29.6L704.8 480c2.4 9.6 3.2 16.8 2.4 20-1.6 3.2-6.4 6.4-15.2 9.6-6.4 2.4-15.2 4.8-24.8 7.2l12 14.4c7.2-1.6 15.2-4 23.2-7.2 12.8-4.8 20.8-10.4 24-16.8 2.4-6.4 0-23.2-8.8-51.2z m-57.6-64.8c-4 7.2-8 13.6-12 20l-13.6 4.8-4.8-14.4 30.4-10.4z" fill="#ffffff" p-id="19668"></path></svg>