<?xml version="1.0" standalone="no"?><!DOCTYPE svg PUBLIC "-//W3C//DTD SVG 1.1//EN" "http://www.w3.org/Graphics/SVG/1.1/DTD/svg11.dtd"><svg t="1629891619201" class="icon" viewBox="0 0 1024 1024" version="1.1" xmlns="http://www.w3.org/2000/svg" p-id="14515" xmlns:xlink="http://www.w3.org/1999/xlink" width="200" height="200"><defs><style type="text/css"></style></defs><path d="M976.213333 955.733333h-928.426666c-27.306667 0-47.786667-20.48-47.786667-47.786666v-791.893334c0-27.306667 20.48-47.786667 47.786667-47.786666 27.306667 0 47.786667 20.48 47.786666 47.786666v737.28h880.64c27.306667 0 47.786667 20.48 47.786667 47.786667s-20.48 54.613333-47.786667 54.613333z m-109.226666-150.186666h-95.573334c-27.306667 0-47.786667-20.48-47.786666-47.786667v-348.16c0-27.306667 20.48-47.786667 47.786666-47.786667h95.573334c27.306667 0 47.786667 20.48 47.786666 47.786667v348.16c0 27.306667-27.306667 47.786667-47.786666 47.786667z m-273.066667 0h-95.573333c-27.306667 0-47.786667-20.48-47.786667-47.786667v-539.306667c0-27.306667 20.48-47.786667 47.786667-47.786666h95.573333c27.306667 0 47.786667 20.48 47.786667 47.786666v539.306667c0 27.306667-20.48 47.786667-47.786667 47.786667z m-273.066667 0h-95.573333c-27.306667 0-47.786667-20.48-47.786667-47.786667v-95.573333c0-27.306667 20.48-47.786667 47.786667-47.786667h95.573333c27.306667 0 47.786667 20.48 47.786667 47.786667v95.573333c0 27.306667-20.48 47.786667-47.786667 47.786667z" p-id="14516" fill="#ffffff"></path></svg>