<?xml version="1.0" standalone="no"?><!DOCTYPE svg PUBLIC "-//W3C//DTD SVG 1.1//EN" "http://www.w3.org/Graphics/SVG/1.1/DTD/svg11.dtd"><svg t="1629892494188" class="icon" viewBox="0 0 1024 1024" version="1.1" xmlns="http://www.w3.org/2000/svg" p-id="23977" xmlns:xlink="http://www.w3.org/1999/xlink" width="200" height="200"><defs><style type="text/css"></style></defs><path d="M981.015814 447.821395a41.674419 41.674419 0 0 0-42.865116 42.269768v362.567442a85.373023 85.373023 0 0 1-85.253954 85.373023H171.103256a85.373023 85.373023 0 0 1-85.253954-85.373023V169.912558a85.373023 85.373023 0 0 1 85.253954-85.253953h365.425116a42.388837 42.388837 0 0 0 0-84.658605H171.103256A170.626977 170.626977 0 0 0 0.595349 170.626977v682.746046A170.626977 170.626977 0 0 0 171.103256 1024h681.793488A170.507907 170.507907 0 0 0 1023.404651 853.373023v-363.16279a42.507907 42.507907 0 0 0-42.388837-42.388838z" p-id="23978" fill="#ffffff"></path><path d="M984.945116 291.72093H569.867907a38.578605 38.578605 0 1 1 0-77.038139h415.077209a38.578605 38.578605 0 0 1 0 77.038139z" p-id="23979" fill="#ffffff"></path><path d="M777.406512 499.259535A38.578605 38.578605 0 0 1 738.827907 460.68093V45.603721a38.578605 38.578605 0 0 1 77.03814 0v415.077209a38.578605 38.578605 0 0 1-38.459535 38.578605z" p-id="23980" fill="#ffffff"></path></svg>