<?xml version="1.0" standalone="no"?><!DOCTYPE svg PUBLIC "-//W3C//DTD SVG 1.1//EN" "http://www.w3.org/Graphics/SVG/1.1/DTD/svg11.dtd"><svg t="1629892435115" class="icon" viewBox="0 0 1024 1024" version="1.1" xmlns="http://www.w3.org/2000/svg" p-id="23120" xmlns:xlink="http://www.w3.org/1999/xlink" width="200" height="200"><defs><style type="text/css"></style></defs><path d="M577.13408 951.936a34.368 34.368 0 0 1 0.768 68.736H407.85408a34.368 34.368 0 0 1-0.832-68.736h170.112z m46.272-96.96a34.368 34.368 0 0 1 0.768 68.736H359.72608a34.368 34.368 0 0 1-0.768-68.736h264.448zM491.56608 0a395.392 395.392 0 0 1 217.344 725.632l-2.56 11.904-6.912 32a68.8 68.8 0 0 1-66.176 54.144H349.29408c-32.768 0-60.992-23.168-67.392-55.296l-3.2-15.68c-3.84-18.56-6.016-28.096-6.528-28.48A395.392 395.392 0 0 1 491.63008 0zM419.63008 153.92c-116.288 21.76-173.696 100.8-180.608 225.408a34.368 34.368 0 0 0 68.672 3.84c5.248-95.36 42.304-146.304 124.544-161.664a34.368 34.368 0 1 0-12.608-67.584z" fill="#ffffff" p-id="23121"></path></svg>