<?xml version="1.0" standalone="no"?><!DOCTYPE svg PUBLIC "-//W3C//DTD SVG 1.1//EN" "http://www.w3.org/Graphics/SVG/1.1/DTD/svg11.dtd"><svg t="1629891799334" class="icon" viewBox="0 0 1024 1024" version="1.1" xmlns="http://www.w3.org/2000/svg" p-id="15371" xmlns:xlink="http://www.w3.org/1999/xlink" width="200" height="200"><defs><style type="text/css"></style></defs><path d="M571.1 896.54v70h70v-70h-70z" p-id="15372" fill="#ffffff"></path><path d="M125.19 896.54c8.33-77.49 44.29-149.41 103.33-205.38 68.36-64.8 159.38-100.49 256.29-100.49 49.22 0 96.92 9.21 140.91 26.77H763c-33.31-26.83-70.46-48.53-110.84-64.72-6.22-2.5-12.48-4.85-18.79-7.05 14.89-9.89 28.9-21.34 41.83-34.27 50.86-50.86 78.87-118.48 78.87-190.4s-28.01-139.54-78.87-190.4c-50.86-50.86-118.48-78.87-190.4-78.87-71.93 0-139.55 28.01-190.4 78.87-50.86 50.86-78.87 118.48-78.87 190.4s28.01 139.54 78.87 190.4c12.93 12.93 26.94 24.39 41.83 34.27-6.31 2.2-12.57 4.55-18.79 7.05-51.33 20.58-97.45 50.07-137.09 87.64-39.76 37.69-71 81.64-92.85 130.61-22.69 50.86-34.2 104.88-34.2 160.57v35h587.8v-70H125.19zM285.54 321c0-109.88 89.39-199.27 199.27-199.27 109.88 0 199.27 89.39 199.27 199.27s-89.39 199.27-199.27 199.27c-109.89 0-199.27-89.39-199.27-199.27zM700.08 930.4l261.9 1.14M699.933 965.392l0.305-70 261.91 1.142-0.305 70zM700.08 804.24l224.43 1.14" p-id="15373" fill="#ffffff"></path><path d="M699.906 839.228l0.356-70 224.44 1.14-0.356 70z" p-id="15374" fill="#ffffff"></path><path d="M700.08 678.07l224.43 1.14M699.909 713.064l0.356-70 224.44 1.141-0.356 70z" p-id="15375" fill="#ffffff"></path></svg>