<?xml version="1.0" standalone="no"?><!DOCTYPE svg PUBLIC "-//W3C//DTD SVG 1.1//EN" "http://www.w3.org/Graphics/SVG/1.1/DTD/svg11.dtd"><svg t="1640423520433" class="icon" viewBox="0 0 1024 1024" version="1.1" xmlns="http://www.w3.org/2000/svg" p-id="4957" xmlns:xlink="http://www.w3.org/1999/xlink" width="200" height="200"><defs><style type="text/css"></style></defs><path d="M830.55 492.794c-16.553 0-29.967 13.414-29.967 29.966v316.73H637.36V614.982c0-16.552-13.414-29.966-29.966-29.966H416.617c-16.552 0-29.967 13.414-29.967 29.966V839.49H223.428V522.76c0-16.552-13.415-29.966-29.967-29.966s-29.966 13.414-29.966 29.966v346.696c0 16.552 13.414 29.967 29.966 29.967h223.156c16.552 0 29.966-13.415 29.966-29.967V644.95h130.845v224.507c0 16.552 13.415 29.967 29.967 29.967H830.55c16.552 0 29.967-13.415 29.967-29.967V522.76c-0.001-16.552-13.416-29.966-29.968-29.966z" p-id="4958"></path><path d="M947.23 438.24L529.787 130.424c-10.558-7.795-25.003-7.795-35.562 0L76.762 438.24c-13.315 9.82-16.154 28.585-6.332 41.907 5.876 7.965 14.949 12.179 24.143 12.179a29.82 29.82 0 0 0 17.757-5.847l399.675-294.705L911.67 486.479c13.297 9.803 32.084 6.988 41.894-6.332 9.833-13.322 6.988-32.086-6.332-41.907z" p-id="4959"></path></svg>