<?xml version="1.0" standalone="no"?><!DOCTYPE svg PUBLIC "-//W3C//DTD SVG 1.1//EN" "http://www.w3.org/Graphics/SVG/1.1/DTD/svg11.dtd"><svg t="1634293239482" class="icon" viewBox="0 0 1024 1024" version="1.1" xmlns="http://www.w3.org/2000/svg" p-id="19540" xmlns:xlink="http://www.w3.org/1999/xlink" width="200" height="200"><defs><style type="text/css"></style></defs><path d="M661.665 659.841c-30.719 0-56.32-25.601-56.32-56.319 0-30.724 25.603-56.319 56.32-56.319 30.723 0 56.32 25.597 56.32 56.319 0 32.425-25.597 56.319-56.32 56.319z m0-172.375c-73.387 0-133.117 59.735-133.117 133.122 0 23.891 6.824 47.785 18.773 66.559l11.944 25.603 25.603 51.199 76.797 157.012L767.48 707.628l10.238-18.774c5.121-10.236 10.238-20.479 13.652-32.426 3.414-10.242 5.121-22.187 5.121-34.132-1.705-75.095-61.439-134.83-134.826-134.83z" fill="#1296db" p-id="19541"></path><path d="M62.135 133.728c0.578 6.457 0.87 13.191 0.87 20.015 0 6.246-0.293 12.986-0.872 20.033l-0.222 2.705h24.571v-26.396h134.901v24.637h25.456l-0.228-2.709c-0.578-6.881-0.871-13.323-0.871-19.148 0-6.389 0.292-12.825 0.87-19.129l0.25-2.728h-77.464c-3.418-10.539-7.42-20.426-11.906-29.413l-0.928-1.858-1.997 0.571c-8.398 2.402-14.793 4.438-19.548 6.223l-2.598 0.975 1.239 2.482c3.917 7.845 6.813 14.896 8.637 21.02H61.892l0.243 2.72z" fill="#1296db" p-id="19542"></path><path d="M97.787 176.045l-1.967 2.752 3.208 1.073c8.514 2.847 22.204 11.021 40.689 24.296l2.166 1.555 1.413-2.262c2.835-4.538 6.307-9.167 10.32-13.757l1.993-2.279-46.883-27.349-1.306 1.959c-3.512 5.268-6.753 9.982-9.633 14.012z" fill="#1296db" p-id="19543"></path><path d="M217.725 230.432h-38.412c2.103-13.006 3.725-25.391 4.825-36.858 1.148-12.106 2.607-21.751 4.336-28.666l0.666-2.662-2.712-0.416c-7.446-1.14-14.708-2.883-21.583-5.179l-3.417-1.142 0.126 3.601c0.574 16.336 0.428 30.304-0.434 41.515-0.81 10.525-2.01 20.542-3.572 29.808h-42.143c4.464-5.595 7.912-10.205 10.252-13.709l1.39-2.081-2.083-1.388c-17.584-11.718-31.605-20.067-41.674-24.817l-2.4-1.132-0.987 2.464c-2.214 5.528-4.988 9.982-8.246 13.24l-2.65 2.65 3.465 1.429c9.475 3.908 22.166 11.76 37.735 23.345H91.021c-10.001 0-21.806-0.295-35.086-0.877l-2.609-0.114v21.944l2.612-0.117c12.998-0.582 24.802-0.877 35.083-0.877h57.977c-7.63 11.218-20.028 20.389-36.926 27.302-19.045 7.791-37.167 12.618-53.863 14.345l-8.087 0.837 7.16 3.852c7.003 3.767 11.636 8.917 13.771 15.308l0.743 2.224 2.267-0.599c11.185-2.955 23.98-6.971 38.032-11.939 14.302-5.07 26.993-12.174 37.72-21.113 10.366-8.638 18.351-18.797 23.756-30.216h43.274c10.28 0 21.786 0.295 34.198 0.877l2.617 0.123v-21.967l-2.626 0.132c-11.55 0.578-22.757 0.873-33.309 0.873z" fill="#1296db" p-id="19544"></path><path d="M219.766 276.032a2560.952 2560.952 0 0 1-36.919-19.778l-1.943-1.061-1.288 1.8c-2.966 4.145-6.787 9.141-11.357 14.851l-2.106 2.631 3.13 1.252c8.604 3.442 19.17 8.58 31.404 15.27 12.146 6.642 23.602 13.839 34.051 21.39l1.833 1.324 1.501-1.69a3181.431 3181.431 0 0 0 13.209-14.97l1.974-2.251-2.568-1.541c-8.766-5.259-19.168-11.054-30.921-17.227zM474.511 265.487V147.583c0-12.186 0.29-20.666 0.86-25.205l0.354-2.812h-22.378l0.346 2.805c0.571 4.651 0.86 13.134 0.86 25.212v118.784c0 10.865-0.295 22.667-0.877 35.078l-0.123 2.617h21.961l-0.126-2.62a753.315 753.315 0 0 1-0.877-35.955zM325.829 157.149l2.079 2.375 1.836-2.568c2.775-3.883 6.752-7.853 11.82-11.799l2.118-1.65-1.797-1.996c-10.568-11.739-23.676-24.251-38.957-37.189l-2.026-1.716-1.591 2.125c-3.405 4.549-6.879 8.603-10.325 12.049l-2.085 2.085 2.398 1.715c8.014 5.732 20.305 18.035 36.53 36.569zM408.807 134.589c0.579 7.047 0.872 15.859 0.872 26.192v86.229c0 9.835-0.287 21.023-0.877 34.204l-0.117 2.612h21.833v-151.94h-21.931l0.22 2.703zM368.679 120.496l-3.352-0.676 0.372 3.399c0.572 5.229 1.16 20.995 1.746 46.857 0.569 25.762-1.626 48.929-6.527 68.857-4.869 19.742-13.996 36.988-27.128 51.259l-2.704 2.938 3.824 1.149c5.557 1.67 10.907 4.488 15.9 8.377l2.086 1.624 1.506-2.173c10.641-15.366 18.297-29.937 22.753-43.307 4.422-13.267 7.419-25.859 8.907-37.43 1.469-11.529 2.067-29.112 1.779-52.262-0.299-22.881 0.129-37.357 1.271-43.028l0.551-2.735-2.779-0.249c-6.34-0.567-12.465-1.442-18.205-2.6z" fill="#1296db" p-id="19545"></path><path d="M350.768 257.385l1.254-1.543-1.222-1.569c-4.107-5.275-7.678-9.737-10.608-13.261l-2.142-2.573-1.858 2.784c-1.815 2.718-5.23 7.57-10.379 14.75v-46.797c0-11.739 0.295-24.432 0.877-37.726l0.113-2.609h-26.369c-8.744 0-16.667-0.293-23.547-0.871l-2.709-0.228v22.15l2.705-0.222c7.047-0.578 14.971-0.872 23.552-0.872h3.659v76.689c0 8.8-2.208 16.299-6.561 22.287l-1.448 1.991 1.969 1.479c4.489 3.37 8.771 7.655 12.727 12.735l2.062 2.647 1.947-2.733c5.608-7.872 11.21-15.391 16.649-22.346 5.464-6.974 11.967-15.103 19.329-24.162z" fill="#1296db" p-id="19546"></path><path d="M898.893 144.427l-167.251-39.254c-6.827-1.707-11.948 0-18.772 1.707l-194.563 91.359v57.951c3.555-0.117 7.081-0.956 10.242-2.537l199.68-90.453 136.53 30.719v476.16l-27.305-6.828-13.652 27.308c-1.707 5.121-5.12 10.238-6.828 13.653v1.707l-5.12 11.945 73.387 17.068c8.535 1.703 17.066 0 23.895-5.12 6.824-5.12 10.238-13.651 10.238-22.188l1.707-535.895c-0.002-11.942-8.533-23.888-22.188-27.302zM101.88 758.826c0 8.535 5.121 18.771 11.945 23.894 6.828 5.121 17.067 6.828 25.602 3.414l184.32-73.386 182.613 75.093c3.415 1.707 6.829 1.707 10.238 1.707 3.414 0 8.535-1.707 11.949-3.414l15.359-6.828-25.603-51.198-1.707 1.707-180.904-75.095c-3.414-1.707-6.824-1.707-10.238-1.707s-6.828 0-10.242 1.707L158.2 717.865V354.853h-56.32v403.973z" fill="#1296db" p-id="19547"></path><path d="M324.1 352.098c-10.769 0-19.498 8.73-19.498 19.5v214.489c0 10.769 8.729 19.499 19.498 19.499 10.77 0 19.5-8.73 19.5-19.499V371.598c0-10.77-8.731-19.5-19.5-19.5zM519.09 304.1c-10.769 0-19.498 8.73-19.498 19.5v154.489c0 10.769 8.729 19.499 19.498 19.499 10.77 0 19.5-8.73 19.5-19.499V323.6c0-10.77-8.731-19.5-19.5-19.5zM729.079 217.104c-10.769 0-19.499 8.73-19.499 19.499v184.49c0 10.768 8.73 19.498 19.499 19.498 10.77 0 19.5-8.73 19.5-19.498v-184.49c0-10.769-8.73-19.499-19.5-19.499z" fill="#1296db" p-id="19548"></path></svg>