<?xml version="1.0" standalone="no"?><!DOCTYPE svg PUBLIC "-//W3C//DTD SVG 1.1//EN" "http://www.w3.org/Graphics/SVG/1.1/DTD/svg11.dtd"><svg t="1634360862692" class="icon" viewBox="0 0 1024 1024" version="1.1" xmlns="http://www.w3.org/2000/svg" p-id="5206" xmlns:xlink="http://www.w3.org/1999/xlink" width="200" height="200"><defs><style type="text/css"></style></defs><path d="M952.2 496.7l-122-122.1c-4.1-4.1-8.1-6.1-14.2-6.1-12.2 0-20.3 8.1-20.3 20.3 0 6.1 2 10.2 6.1 14.2l87.5 87.5H396.8l276.7-276.7v113.9c0 12.2 8.1 20.3 20.3 20.3 12.2 0 20.3-8.1 20.3-20.3V165.1c0-12.2-8.1-20.3-20.3-20.3H531.1c-12.2 0-20.3 8.1-20.3 20.3 0 12.2 8.1 20.3 20.3 20.3H645L339.8 490.6h-116c-8.1-34.6-40.7-61-79.4-61-44.8 0-81.4 36.6-81.4 81.4s36.6 81.4 81.4 81.4c38.7 0 69.2-26.4 79.4-61h116L645 836.5H531.1c-12.2 0-20.3 8.1-20.3 20.3 0 12.2 8.1 20.3 20.3 20.3h162.8c12.2 0 20.3-8.1 20.3-20.3V694.1c0-12.2-8.1-20.3-20.3-20.3-12.2 0-20.3 8.1-20.3 20.3V808L396.8 531.3h492.4l-87.5 87.5c-4.1 4.1-6.1 8.1-6.1 14.2 0 12.2 8.1 20.3 20.3 20.3 6.1 0 10.2-2 14.2-6.1l122.1-122.1c4.1-4.1 6.1-8.1 6.1-14.2s-2-10.1-6.1-14.2z m-807.7 54.9c-22.4 0-40.7-18.3-40.7-40.7 0-22.4 18.3-40.7 40.7-40.7 22.4 0 40.7 18.3 40.7 40.7 0 22.4-18.3 40.7-40.7 40.7z m0 0" fill="#1296db" p-id="5207"></path></svg>