<?xml version="1.0" standalone="no"?><!DOCTYPE svg PUBLIC "-//W3C//DTD SVG 1.1//EN" "http://www.w3.org/Graphics/SVG/1.1/DTD/svg11.dtd"><svg t="1634292394221" class="icon" viewBox="0 0 1024 1024" version="1.1" xmlns="http://www.w3.org/2000/svg" p-id="13914" xmlns:xlink="http://www.w3.org/1999/xlink" width="200" height="200"><defs><style type="text/css"></style></defs><path d="M321 263.2c-8 21.2-12.4 44.2-12.4 68.3 0 106.9 86.6 193.5 193.5 193.5s193.5-86.6 193.5-193.5c0-24-4.4-47-12.4-68.3 37.5-21.1 60.3-48.8 60.3-79.2 0-66.2-108.1-119.8-241.5-119.8S260.7 117.9 260.7 184c0 30.4 22.8 58.1 60.3 79.2z m68.7-11h224.9V278H389.7v-25.8z m78.8-114.3c5.5-1.4 9.4-5.6 9.4-10.6 0-1-0.2-2-0.5-2.9 6.3-5.4 30.2-8.6 30.2-8.6s23.9 3.2 30.2 8.6c-0.3 0.9-0.5 1.9-0.5 2.9 0 5 4 9.2 9.4 10.6 0.6 1.8 1.1 3.7 1.6 5.7 2 9 2 19.3 2 29.5 0 28.5-42.8 46-42.8 46s-42.8-17.5-42.8-46c0-11.2 0-22.5 2.6-32 0.5-1.1 0.8-2.2 1.2-3.2z" p-id="13915" fill="#1296db"></path><path d="M496.6 186.3l11.1-5.8 11 5.8-2.1-12.3 8.9-8.7-12.3-1.8-5.5-11.2-5.6 11.2-12.3 1.8 8.9 8.7zM831.1 655.3C700.5 572.1 662 546.9 604.9 539.4c3.9 15.1 6 31.4 6 48.3 0 68.8-34.7 126.3-81.1 140.4v-88.8h-55.3v84.5c-40.7-19.2-70-72.9-70-136.1 0-16.4 2-32.2 5.7-46.9-54 9.3-99.2 36.9-233.3 119.3-44.7 29.7-70.9 176.3-70.9 215.2 0 101.8 179.9 73.7 401.8 73.7s401.8 28.1 401.8-73.7c-0.1-41-29.2-189.4-78.5-220z" p-id="13916" fill="#1296db"></path><path d="M469 569.2l31.3 57.1 31.3-57.1-31.3-31.2z" p-id="13917" fill="#1296db"></path></svg>