<?xml version="1.0" standalone="no"?><!DOCTYPE svg PUBLIC "-//W3C//DTD SVG 1.1//EN" "http://www.w3.org/Graphics/SVG/1.1/DTD/svg11.dtd"><svg t="1634015752220" class="icon" viewBox="0 0 1024 1024" version="1.1" xmlns="http://www.w3.org/2000/svg" p-id="28118" xmlns:xlink="http://www.w3.org/1999/xlink" width="200" height="200"><defs><style type="text/css"></style></defs><path d="M536.81 641.76l-24.57-71.26-24.93 71.13-75.36 1.35 59.95 45.69-22.01 72.09 61.98-42.9 61.76 43.21-21.64-72.2 60.17-45.39-75.35-1.72z" p-id="28119" fill="#ffffff"></path><path d="M862 198.49A105.14 105.14 0 0 1 757 94a27 27 0 0 0-27-27H294a27 27 0 0 0-27 27 105.14 105.14 0 0 1-105 104.49 27 27 0 0 0-27 27v213q0 1.12 0.09 2.24c7.88 94.84 32 180.94 71.75 255.92a554.25 554.25 0 0 0 124.82 158C418.51 930.82 501 955.41 504.45 956.42a27 27 0 0 0 15.09 0c3.47-1 85.94-25.6 172.79-101.69a554.24 554.24 0 0 0 124.82-158c39.73-75 63.87-161.08 71.75-255.92q0.09-1.11 0.09-2.24v-213A27 27 0 0 0 862 198.49z m-27 238.92c-7.31 86.46-29.11 164.69-64.79 232.54a500.65 500.65 0 0 1-111.59 142.52C595 868.78 533 894.38 512 902c-21.1-7.65-83-33.25-146.63-89.54a500.65 500.65 0 0 1-111.58-142.51c-35.68-67.86-57.48-146.08-64.79-232.54v-187.2c66-11.32 118.31-63.38 129.69-129.21h386.62C716.69 186.83 769 238.89 835 250.21z" p-id="28120" fill="#ffffff"></path><path d="M671.75 291h-319.5a27 27 0 0 0 0 54h319.5a27 27 0 0 0 0-54zM671.75 428h-319.5a27 27 0 0 0 0 54h319.5a27 27 0 0 0 0-54z" p-id="28121" fill="#ffffff"></path></svg>