<?xml version="1.0" standalone="no"?><!DOCTYPE svg PUBLIC "-//W3C//DTD SVG 1.1//EN" "http://www.w3.org/Graphics/SVG/1.1/DTD/svg11.dtd"><svg t="1634012138155" class="icon" viewBox="0 0 1024 1024" version="1.1" xmlns="http://www.w3.org/2000/svg" p-id="2421" xmlns:xlink="http://www.w3.org/1999/xlink" width="200" height="200"><defs><style type="text/css"></style></defs><path d="M0 1024h512V0H0v1024zM292.571429 73.142857h146.285714v146.285714H292.571429V73.142857z m0 219.428572h146.285714v146.285714H292.571429V292.571429z m0 219.428571h146.285714v146.285714H292.571429V512zM73.142857 73.142857h146.285714v146.285714H73.142857V73.142857z m0 219.428572h146.285714v146.285714H73.142857V292.571429z m0 219.428571h146.285714v146.285714H73.142857V512z m519.314286 512h146.285714v-219.428571h219.428572v219.428571h65.828571V592.457143H592.457143V1024z m0-592.457143H1024V512H592.457143V431.542857z" p-id="2422" fill="#ffffff"></path></svg>