<?xml version="1.0" standalone="no"?><!DOCTYPE svg PUBLIC "-//W3C//DTD SVG 1.1//EN" "http://www.w3.org/Graphics/SVG/1.1/DTD/svg11.dtd"><svg t="1634015209334" class="icon" viewBox="0 0 1024 1024" version="1.1" xmlns="http://www.w3.org/2000/svg" p-id="24140" xmlns:xlink="http://www.w3.org/1999/xlink" width="200" height="200"><defs><style type="text/css"></style></defs><path d="M896 85.333333v725.333334a128 128 0 0 1-128 128H384v-64h384a64 64 0 0 0 63.893333-60.245334L832 810.666667V149.333333h-128V85.333333h192zM640 85.333333v64H256a64 64 0 0 0-63.893333 60.245334L192 213.333333v661.333334h128v64H128V213.333333a128 128 0 0 1 128-128h384z m64 576v64H320v-64h384z" fill="#ffffff" p-id="24141"></path><path d="M705.28 469.333333h-64v-40.085333l-106.666667 106.666667-64-64-105.365333 105.386666L320 532.032l150.613333-150.613333 64 64L596.053333 384h-40.064v-64h149.333334v149.333333z" fill="#ffffff" p-id="24142"></path></svg>