<?xml version="1.0" standalone="no"?><!DOCTYPE svg PUBLIC "-//W3C//DTD SVG 1.1//EN" "http://www.w3.org/Graphics/SVG/1.1/DTD/svg11.dtd"><svg t="1634293276798" class="icon" viewBox="0 0 1024 1024" version="1.1" xmlns="http://www.w3.org/2000/svg" p-id="20314" xmlns:xlink="http://www.w3.org/1999/xlink" width="200" height="200"><defs><style type="text/css"></style></defs><path d="M471.243781 101.890547c28.137075 0 50.945274 22.808199 50.945274 50.945274v779.462686H78.965174V152.835821c0-28.137075 22.808199-50.945274 50.945274-50.945274h341.333333zM267.462687 621.532338H170.666667v96.79602h96.79602v-96.79602z m163.024875 0H333.691542v96.79602h96.79602v-96.79602zM267.462687 448.318408H170.666667v96.79602h96.79602V448.318408z m163.024875 0H333.691542v96.79602h96.79602V448.318408zM267.462687 275.104478H170.666667v96.79602h96.79602V275.104478z m163.024875 0H333.691542v96.79602h96.79602V275.104478zM899.18408 422.845771c28.137075 0 50.945274 22.808199 50.945273 50.945274v458.507462h-376.995025V473.791045c0-28.137075 22.808199-50.945274 50.945274-50.945274h275.104478z m-173.213931 290.38806h-96.79602v96.79602h96.79602v-96.79602z m163.024876 0h-96.79602v96.79602h96.79602v-96.79602z m-163.024876-173.213931h-96.79602v96.79602h96.79602v-96.79602z m163.024876 0h-96.79602v96.79602h96.79602v-96.79602z" fill="#1296db" p-id="20315"></path></svg>