<?xml version="1.0" standalone="no"?><!DOCTYPE svg PUBLIC "-//W3C//DTD SVG 1.1//EN" "http://www.w3.org/Graphics/SVG/1.1/DTD/svg11.dtd"><svg t="1634028748368" class="icon" viewBox="0 0 1024 1024" version="1.1" xmlns="http://www.w3.org/2000/svg" p-id="36540" xmlns:xlink="http://www.w3.org/1999/xlink" width="200" height="200"><defs><style type="text/css"></style></defs><path d="M592.6 253.8c43.6 0 79-35 79-78.3 0-43.2-35.4-78.3-79-78.3s-79 35-79 78.3c0 43.2 35.3 78.3 79 78.3z m130-22.6c-45.4 63-106.1 70.2-171.5 31.8-4.5-2.6-24.2-13.4-28.6-16-105.2-61.8-210.3-37.6-280.7 60.1-29.9 41.6 39.3 81 68.9 39.9 36.4-50.4 82.7-65 133.3-49-25.9 44.6-48.6 88.9-80.6 151.8-32 62.9-102.6 113.2-170.5 73.9-49-28.3-93.1 41.3-44.3 69.6 92.6 53.6 201.3 20.7 256.7-49 1.9 1 4 1.9 6.2 2.7 45.3 15.6 104.7 57.3 122.8 72 18.1 14.8 49.2 89.9 67.6 127.7 22.4 45.8 94.7 12.4 72.2-33.6-20.9-42.8-56-128.3-83.4-150-22-17.3-64.6-49.6-100.8-68 24.5-47 50-93.4 76.8-139.1 85.5 26 166.8-4.6 224.7-84.9 30.1-41.6-39.2-81-68.8-39.9z" fill="#ffffff" p-id="36541"></path><path d="M863.5 847.5L739 917.8c-21.1 11.9-45.1 11.9-66.2 0l-124.4-70.3c-21.1-11.9-33.1-32.3-33.1-56.1V650.6c0-23.9 12-44.2 33.1-56.1l124.4-70.3c21.1-11.9 45.1-11.9 66.2 0l124.4 70.3c21.1 11.9 33.1 32.3 33.1 56.1v140.7c0.1 23.9-11.9 44.3-33 56.2z" fill="#ffffff" p-id="36542"></path><path d="M807.7 776c-1.1-8-5.1-11.9-11.9-11.8-6.9 0.1-10.8 4.1-11.7 11.8 0.1 5.2-0.4 9.5-1.6 13.1-1.2 3.6-4.1 5.5-8.6 5.6h-37.5c-4.3-0.4-6.7-2.7-6.9-6.9v-32.2h44.4c8.3 0.3 12.3-3.8 12.2-12.2v-53.7c0.1-8.1-3.9-12.2-12.2-12.2h-22.4c6.6-7.9 12.3-16.6 17.1-26.1 3.8-9.5 0.7-14.8-9.4-15.9h-67.6c0.7-5.8-1.4-10.3-6.2-13.3-4.8-3.1-9.7-2-14.6 3.2-16.3 20.8-34.6 37.6-55 50.5-5.6 4.9-6.7 10.2-3.4 15.9 3.3 5.7 8.1 7.3 14.4 4.9 2.2-0.8 3.5-1.6 4.1-2.4v49.3c-0.4 8.4 3.7 12.5 12.2 12.2h40.3c-10.5 21.2-32 35.5-64.7 43-6.8 2.7-9.5 7.4-8 13.9 1.4 6.6 6 9.7 13.7 9.3 16.2-3.3 31.6-9.4 46.3-18.4 14.7-9 26.3-22.8 34.7-41.2v36c0.1 13.4 7.9 20.4 23.2 20.8h47.2c9.5 0.3 17.1-2.5 22.8-8.4 5.7-5.9 8.7-16.9 9-32.9l0.1-1.9z" fill="#ffffff" p-id="36543"></path><path d="M714.5 710.5v-9.8H756c4.1-0.1 6.1 1.8 6.1 5.7v20.8c0 4.2-2 6.1-6.1 5.7h-42.8c0.9-5.5 1.3-12.9 1.3-22.4z m6.9-33c4.8-6 8.7-11.5 11.8-16.7 1.8-2.3 0.7-3.3-3.3-2.8h-54.2c-6.8 7.2-14.1 13.7-22 19.5h67.7z m-61.1 23.2c-4.3-0.1-6.4 1.8-6.1 5.7v20.8c-0.3 4.2 1.8 6.1 6.1 5.7h29.3c1.2-6 1.9-14.3 2-24.8v-7.3l-31.3-0.1z" fill="#ffffff" p-id="36544"></path></svg>