<?xml version="1.0" standalone="no"?><!DOCTYPE svg PUBLIC "-//W3C//DTD SVG 1.1//EN" "http://www.w3.org/Graphics/SVG/1.1/DTD/svg11.dtd"><svg t="1634294080655" class="icon" viewBox="0 0 1024 1024" version="1.1" xmlns="http://www.w3.org/2000/svg" p-id="7543" xmlns:xlink="http://www.w3.org/1999/xlink" width="200" height="200"><defs><style type="text/css"></style></defs><path d="M183 630c-13.807 0-25-11.193-25-25V455c0-13.807 11.193-25 25-25s25 11.193 25 25v150c0 13.807-11.193 25-25 25zM791 847H233c-41.355 0-75-33.645-75-75v-17c0-13.808 11.193-25 25-25s25 11.192 25 25v17c0 13.785 11.215 25 25 25h558c13.785 0 25-11.215 25-25V583c0-13.808 11.192-25 25-25s25 11.192 25 25v189c0 41.355-33.645 75-75 75zM841 460c-13.808 0-25-11.193-25-25V252c0-13.785-11.215-25-25-25H233c-13.785 0-25 11.215-25 25v59c0 13.807-11.193 25-25 25s-25-11.193-25-25v-59c0-41.355 33.645-75 75-75h558c41.355 0 75 33.645 75 75v183c0 13.807-11.192 25-25 25zM230 404h-98c-11.046 0-20-8.954-20-20s8.954-20 20-20h98c11.046 0 20 8.954 20 20s-8.954 20-20 20zM230 697h-98c-11.046 0-20-8.954-20-20s8.954-20 20-20h98c11.046 0 20 8.954 20 20s-8.954 20-20 20z" p-id="7544" fill="#ffffff"></path><path d="M666 408H358c-13.807 0-25-11.193-25-25s11.193-25 25-25h308c13.807 0 25 11.193 25 25s-11.193 25-25 25zM666 553H358c-13.807 0-25-11.193-25-25s11.193-25 25-25h308c13.807 0 25 11.193 25 25s-11.193 25-25 25zM666 698H358c-13.807 0-25-11.193-25-25s11.193-25 25-25h308c13.807 0 25 11.193 25 25s-11.193 25-25 25zM841 606c-52.383 0-95-42.617-95-95s42.617-95 95-95 95 42.617 95 95-42.617 95-95 95z m0-140c-24.813 0-45 20.187-45 45s20.187 45 45 45 45-20.187 45-45-20.187-45-45-45z" p-id="7545" fill="#ffffff"></path></svg>