<?xml version="1.0" standalone="no"?><!DOCTYPE svg PUBLIC "-//W3C//DTD SVG 1.1//EN" "http://www.w3.org/Graphics/SVG/1.1/DTD/svg11.dtd"><svg t="1634294002415" class="icon" viewBox="0 0 1024 1024" version="1.1" xmlns="http://www.w3.org/2000/svg" p-id="5799" xmlns:xlink="http://www.w3.org/1999/xlink" width="200" height="200"><defs><style type="text/css"></style></defs><path d="M633.6 908.8c-12.8 0-25.6-6.4-25.6-19.2l-102.4-640-121.6 384c-6.4 12.8-12.8 19.2-25.6 19.2s-19.2-6.4-25.6-12.8L243.2 448 153.6 518.4c-6.4 0-12.8 6.4-12.8 6.4H44.8c-12.8 0-25.6-12.8-25.6-32s12.8-25.6 25.6-25.6H128l102.4-89.6c6.4-6.4 19.2-6.4 25.6-6.4 6.4 0 12.8 6.4 19.2 12.8l76.8 166.4L486.4 128c6.4-6.4 12.8-12.8 25.6-12.8s19.2 12.8 25.6 19.2l102.4 614.4 96-390.4c0-12.8 12.8-19.2 25.6-19.2s19.2 6.4 25.6 19.2l57.6 192 32-70.4c6.4-6.4 12.8-12.8 25.6-12.8h83.2c12.8 0 25.6 12.8 25.6 25.6s-12.8 25.6-25.6 25.6h-70.4l-57.6 115.2c-6.4 6.4-12.8 12.8-25.6 12.8s-19.2-6.4-25.6-19.2l-44.8-160-102.4 422.4c-6.4 12.8-12.8 19.2-25.6 19.2z" p-id="5800" fill="#ffffff"></path></svg>