<?xml version="1.0" standalone="no"?><!DOCTYPE svg PUBLIC "-//W3C//DTD SVG 1.1//EN" "http://www.w3.org/Graphics/SVG/1.1/DTD/svg11.dtd"><svg t="1634293943128" class="icon" viewBox="0 0 1024 1024" version="1.1" xmlns="http://www.w3.org/2000/svg" p-id="4921" xmlns:xlink="http://www.w3.org/1999/xlink" width="200" height="200"><defs><style type="text/css"></style></defs><path d="M541.056 588.256L228.768 856.96c79.872 65.376 181.568 101.664 283.232 101.664 217.888 0 406.688-159.776 443.008-370.368H541.056z m-21.792-50.848h501.12C1005.856 806.112 788 1024 512 1024c-137.984 0-275.968-58.112-370.368-159.776l377.632-326.816zM490.208 0v493.856L112.576 820.672C39.968 733.536 3.648 624.576 3.648 508.384 3.648 239.68 221.536 14.528 490.24 0zM61.728 508.384c0 79.872 21.792 159.776 65.376 225.12l305.024-261.44V65.376C221.504 101.696 61.76 290.496 61.76 508.384z m617.312-21.792h101.664l203.36-174.304c-7.264-21.792-21.792-43.584-29.056-58.112l-275.968 232.384zM533.792 0v79.872L613.664 7.264c-21.792 0-50.848 0-79.872-7.264z m421.216 486.592l58.112-50.848c0-21.792-7.264-50.848-14.528-72.64l-137.984 123.456h94.4z m-167.04-399.456l-254.176 217.888v87.136l305.024-261.44c-14.528-21.792-29.056-36.32-50.848-43.584zM679.04 29.056l-145.248 123.456v87.136l210.624-181.568c-21.792-7.264-43.584-21.792-65.376-29.056z m246.912 181.568c-14.528-14.528-29.056-36.32-43.584-50.848L533.76 457.536v29.056h65.376l326.816-275.968z" p-id="4922" fill="#ffffff"></path></svg>