<?xml version="1.0" standalone="no"?><!DOCTYPE svg PUBLIC "-//W3C//DTD SVG 1.1//EN" "http://www.w3.org/Graphics/SVG/1.1/DTD/svg11.dtd"><svg t="1629892234028" class="icon" viewBox="0 0 1024 1024" version="1.1" xmlns="http://www.w3.org/2000/svg" p-id="17683" xmlns:xlink="http://www.w3.org/1999/xlink" width="200" height="200"><defs><style type="text/css"></style></defs><path d="M850.445 850.445c-85.692 85.691-224.627 85.691-310.319 0-85.692-85.692-85.692-224.627 0-310.319 85.692-85.692 224.627-85.692 310.32 0 85.691 85.692 85.691 224.627 0 310.32m51.72-362.04c-105.499-105.499-271.523-113.585-386.299-24.259L321.774 270.054l-103.439-103.44L99.431 47.711c-14.282-14.282-37.438-14.282-51.719 0-14.283 14.282-14.283 37.438 0 51.72l93.043 93.043-91.967 91.967c-14.282 14.282-14.282 37.438 0 51.72 14.282 14.282 37.438 14.282 51.72 0l91.967-91.967 51.72 51.72-91.967 91.967c-34.48 34.48 17.24 86.2 51.72 51.72l91.966-91.968 168.233 168.234c-89.326 114.776-81.239 280.8 24.26 386.298 114.256 114.256 299.502 114.256 413.758 0 114.256-114.257 114.256-299.503 0-413.759" p-id="17684" fill="#ffffff"></path></svg>