<?xml version="1.0" standalone="no"?><!DOCTYPE svg PUBLIC "-//W3C//DTD SVG 1.1//EN" "http://www.w3.org/Graphics/SVG/1.1/DTD/svg11.dtd"><svg t="1629892384844" class="icon" viewBox="0 0 1024 1024" version="1.1" xmlns="http://www.w3.org/2000/svg" p-id="18560" xmlns:xlink="http://www.w3.org/1999/xlink" width="200" height="200"><defs><style type="text/css"></style></defs><path d="M63.122286 951.53981c-17.298286 0-31.817143-6.034286-44.227048-18.432C6.509714 920.746667 0.426667 905.935238 0.402286 888.003048V64.536381c0-17.956571 6.107429-32.963048 18.578285-45.665524C31.414857 6.192762 45.921524 0.024381 63.146667 0h775.838476c17.188571 0 31.463619 6.144 43.53219 18.761143 12.190476 12.726857 18.16381 27.782095 18.16381 45.775238v275.529143c0 13.409524-10.983619 24.283429-24.466286 24.283428h-0.572952a24.441905 24.441905 0 0 1-24.466286-24.478476V52.382476L50.93181 50.249143V900.144762l280.356571 1.889524a24.624762 24.624762 0 0 1 24.429714 24.551619v0.585143c0 13.470476-10.934857 24.380952-24.441905 24.380952H63.122286zM657.627429 180.053333a24.380952 24.380952 0 0 1 24.454095 24.259048v1.767619c0 13.409524-10.910476 24.259048-24.454095 24.259048H206.506667a24.380952 24.380952 0 0 1-24.454096-24.259048v-1.767619c0-13.397333 10.910476-24.259048 24.454096-24.259048h451.132952z m-101.473524 181.052953c13.433905 0 24.32 10.934857 24.32 24.356571v0.572953a24.32 24.32 0 0 1-24.32 24.34438H206.372571a24.356571 24.356571 0 0 1-24.33219-24.34438v-0.572953c0-13.446095 10.861714-24.356571 24.33219-24.356571h349.781334z m-138.678857 180.053333a24.380952 24.380952 0 0 1 24.454095 24.259048v1.767619c0 13.397333-10.849524 24.259048-24.454095 24.259047H206.506667a24.380952 24.380952 0 0 1-24.454096-24.259047v-1.767619c0-13.409524 10.849524-24.259048 24.454096-24.259048h210.980571z m0 180.041143a24.380952 24.380952 0 0 1 24.454095 24.259048v1.767619c0 13.397333-10.849524 24.259048-24.454095 24.259047H206.506667a24.380952 24.380952 0 0 1-24.454096-24.259047v-1.767619c0-13.409524 10.849524-24.259048 24.454096-24.259048h210.980571z m603.891809 217.624381c-2.499048 2.608762-4.681143 3.303619-7.728762 2.755047L916.687238 919.161905l-10.581333-2.438095-36.486095 102.302476c-1.194667 2.535619-3.145143 3.900952-6.948572 4.217904-3.718095-0.036571-5.254095-0.950857-6.558476-3.547428l-75.324952-138.654476-25.453715-46.860191-3.462095-6.375619h-7.253333c-2.681905 0-5.534476 0.353524-8.582096 1.01181h-6.253714a44.483048 44.483048 0 0 1-4.705524 1.024c-0.670476 0-8.252952-0.731429-20.260571-1.999238l-8.082286-0.853334-104.484571 191.268572c-1.560381 3.108571-2.82819 3.900952-5.729524 3.900952h-2.072381c-2.267429-0.24381-3.632762-1.340952-4.85181-4.973714l-32.914285-92.306286-3.608381-10.118095-108.007619 23.771428c-3.730286 0.926476-5.424762 0.329143-7.643429-2.608761-2.206476-2.925714-2.31619-4.352-0.828952-6.814477l115.151238-207.018666 2.925714-5.241905-2.377143-5.510095c-11.678476-27.136-17.493333-54.479238-17.493333-82.115048-0.024381-55.393524 19.529143-102.217143 58.965333-141.202286 39.472762-39.009524 86.674286-58.38019 142.299429-58.38019 55.588571 0 102.595048 19.504762 141.702095 58.806857 39.131429 39.314286 58.550857 86.345143 58.550857 141.775238 0 28.257524-5.778286 54.808381-17.359238 79.798857l-2.56 5.534476 115.870476 215.222858c1.145905 2.925714 0.889905 5.241905-0.902095 8.033523z m-447.341714-35.352381l9.264762 25.368381 64.902095-119.369143-10.727619-5.814857c-22.905905-12.397714-40.033524-24.649143-51.358476-36.571429l-11.422476-12.007619-72.716191 130.462476 60.489143-13.775238 11.568762 31.695238z m-9.45981-32.195048c-0.402286 0.085333-2.718476-1.182476-2.803809-1.426285l0.694857 1.901714 2.108952-0.487619z m160.475429-94.829714c40.216381 0 75.093333-14.384762 104.057905-42.873905 28.988952-28.525714 43.800381-63.50019 44.166095-104.228571 0.353524-40.764952-13.921524-75.946667-42.544762-104.862476-28.635429-28.928-63.744-43.52-104.618667-43.52-40.838095 0-76.068571 14.384762-105.033143 42.873904-29.013333 28.550095-43.678476 63.561143-43.678476 104.350477 0 40.71619 14.433524 75.861333 43.032381 104.752761 28.635429 28.91581 63.744 43.52 104.618667 43.52z m233.569524 125.805714l-81.92-146.724571-11.410286 11.349333c-14.177524 14.116571-34.864762 28.842667-62.012952 44.032L792.746667 816.761905l73.081904 134.741333 23.612953-65.487238c0.024381-0.073143 69.144381 16.213333 69.144381 16.213333z m-69.705143-16.579047l-0.402286-0.085334 0.999619 0.24381c0.24381-1.158095-1.158095-0.292571-0.609524-0.158476z" p-id="18561" fill="#ffffff"></path></svg>