<?xml version="1.0" standalone="no"?><!DOCTYPE svg PUBLIC "-//W3C//DTD SVG 1.1//EN" "http://www.w3.org/Graphics/SVG/1.1/DTD/svg11.dtd"><svg t="1629892701703" class="icon" viewBox="0 0 1024 1024" version="1.1" xmlns="http://www.w3.org/2000/svg" p-id="20321" xmlns:xlink="http://www.w3.org/1999/xlink" width="200" height="200"><defs><style type="text/css"></style></defs><path d="M510.5 957c-245.4 0-445-199.6-445-445s199.6-445 445-445 445 199.6 445 445-199.7 445-445 445z m0-821.5C302.9 135.5 134 304.4 134 512s168.9 376.5 376.5 376.5S887 719.6 887 512 718.1 135.5 510.5 135.5z" fill="#ffffff" p-id="20322"></path><path d="M520.7 412.2l25.5 51.7c1.9 3.9 5.6 6.6 9.9 7.2l57 8.3c9.4 1.4 13.1 12.9 6.3 19.5l-41.9 40.9c-2.7 2.6-3.9 6.4-3.3 10.1l9.9 57.7c1.6 9.3-8.2 16.4-16.6 12l-51.8-27.2c-3.3-1.8-7.3-1.8-10.6 0l-51.8 27.2c-8.4 4.4-18.2-2.7-16.6-12l9.9-57.7c0.6-3.7-0.6-7.5-3.3-10.1l-41.9-40.9c-6.8-6.6-3-18.1 6.3-19.5l57.9-8.4c3.7-0.5 6.9-2.9 8.6-6.2l25.9-52.5c4.3-8.6 16.4-8.6 20.6-0.1z" fill="#ffffff" p-id="20323"></path><path d="M510.5 785.8c-71.4 0-139.2-27.8-190.9-78.2-13.5-13.2-13.8-34.9-0.6-48.4 13.2-13.5 34.9-13.7 48.4-0.6 38.7 37.9 89.6 58.7 143 58.7s104.3-20.9 143-58.7c13.6-13.2 35.2-12.9 48.4 0.6 13.2 13.5 12.9 35.2-0.6 48.4-51.5 50.5-119.3 78.2-190.7 78.2zM750.1 546.2c-18.9 0-34.2-15.3-34.2-34.2 0-113.3-92.1-205.4-205.4-205.4S305.1 398.7 305.1 512c0 18.9-15.3 34.2-34.2 34.2-18.9 0-34.2-15.3-34.2-34.2 0-151 122.8-273.8 273.8-273.8S784.3 361 784.3 512c0 18.9-15.3 34.2-34.2 34.2z" fill="#ffffff" p-id="20324"></path></svg>