<?xml version="1.0" standalone="no"?><!DOCTYPE svg PUBLIC "-//W3C//DTD SVG 1.1//EN" "http://www.w3.org/Graphics/SVG/1.1/DTD/svg11.dtd"><svg t="1629892570533" class="icon" viewBox="0 0 1024 1024" version="1.1" xmlns="http://www.w3.org/2000/svg" p-id="19434" xmlns:xlink="http://www.w3.org/1999/xlink" width="200" height="200"><defs><style type="text/css"></style></defs><path d="M512 512c-140.8 0-256-115.2-256-256S371.2 0 512 0s256 115.2 256 256-115.2 256-256 256z m0-426.66496c-93.86496 0-170.66496 76.8-170.66496 170.66496s76.8 170.66496 170.66496 170.66496 170.66496-76.8 170.66496-170.66496-76.8-170.66496-170.66496-170.66496zM896 1024H128c-72.53504 0-128-55.46496-128-128v-85.33504c0-72.52992 55.46496-128 128-128h768c72.53504 0 128 55.47008 128 128V896c0 72.53504-55.46496 128-128 128zM128 768c-25.6 0-42.66496 17.06496-42.66496 42.66496V896c0 25.6 17.06496 42.66496 42.66496 42.66496h768c25.6 0 42.66496-17.06496 42.66496-42.66496v-85.33504c0-25.6-17.06496-42.66496-42.66496-42.66496H128z" p-id="19435" fill="#ffffff"></path><path d="M755.2 768c-89.6-29.86496-149.33504-72.53504-179.2-136.53504-25.6-59.72992-17.06496-136.52992 25.6-221.86496l76.8 38.4c-29.86496 64-38.4 115.2-21.33504 149.33504 17.07008 38.4 59.73504 68.26496 123.73504 89.6l-25.6 81.06496z m-486.4-4.26496l-25.6-81.07008c59.73504-21.32992 102.4-51.2 119.46496-85.32992 17.07008-38.4 12.8-89.6-17.06496-153.6L422.4 409.6c38.4 85.33504 42.66496 162.13504 12.8 221.86496-25.6 59.73504-81.06496 106.67008-166.4 132.27008z" p-id="19436" fill="#ffffff"></path></svg>