<?xml version="1.0" standalone="no"?><!DOCTYPE svg PUBLIC "-//W3C//DTD SVG 1.1//EN" "http://www.w3.org/Graphics/SVG/1.1/DTD/svg11.dtd"><svg t="1629892143051" class="icon" viewBox="0 0 1024 1024" version="1.1" xmlns="http://www.w3.org/2000/svg" p-id="16831" xmlns:xlink="http://www.w3.org/1999/xlink" width="200" height="200"><defs><style type="text/css"></style></defs><path d="M768 884.150857c10.020571 0 19.090286 4.096 25.673143 10.678857l3.657143 4.242286a36.278857 36.278857 0 0 1-3.657143 47.323429 36.352 36.352 0 0 1-25.746286 10.678857H252.489143a36.498286 36.498286 0 0 1-34.889143-34.962286v-1.462857l0.512-6.436572a36.571429 36.571429 0 0 1 34.377143-30.061714zM879.030857 8.192l10.678857 0.365714a142.994286 142.994286 0 0 1 132.169143 142.409143v441.856a142.994286 142.994286 0 0 1-142.848 142.701714H142.774857A142.848 142.848 0 0 1 0 592.896V150.893714C0 72.118857 63.926857 8.192 142.774857 8.192h736.329143z m0 64.585143H142.701714A77.824 77.824 0 0 0 64.658286 150.893714v442.002286c0 43.154286 34.962286 78.116571 78.116571 78.116571h736.329143a77.970286 77.970286 0 0 0 78.262857-78.116571V150.966857a77.970286 77.970286 0 0 0-78.262857-78.189714z" p-id="16832" fill="#ffffff"></path></svg>