<?xml version="1.0" standalone="no"?><!DOCTYPE svg PUBLIC "-//W3C//DTD SVG 1.1//EN" "http://www.w3.org/Graphics/SVG/1.1/DTD/svg11.dtd"><svg t="1629892857859" class="icon" viewBox="0 0 1024 1024" version="1.1" xmlns="http://www.w3.org/2000/svg" p-id="21209" xmlns:xlink="http://www.w3.org/1999/xlink" width="200" height="200"><defs><style type="text/css"></style></defs><path d="M635 504L478.5 663l-71.8-75.5c-12.2-12.8-32.1-13-44.5-0.5-12.4 12.5-12.7 32.9-0.6 45.7l93.9 98.8c5.9 6.2 13.9 9.7 22.2 9.7h0.3c8.3 0 16.2-3.3 22.1-9.3L679.2 550c12.3-12.6 12.5-33 0.3-45.7-12.2-12.8-32.1-12.9-44.5-0.3z m165.7 360.7c0 12-9.7 21.7-21.5 21.7H246.8c-11.7 0-21.5-10-21.5-21.7V356.9h177.5c47.4 0 86.8-40.2 86.8-88.2V131.8h289.6c11.9 0 21.5 9.7 21.5 21.7v711.2zM418.3 163.6v98.2c0 11.7-9.6 21.5-21 21.5h-124l145-119.7z m373.8-99.7h-342c-1.5 0-2.7 0.6-4.1 0.8-2.1 0.3-4.1 0.5-6.2 1.3-2.1 0.8-3.9 1.9-5.8 3-1.2 0.7-2.5 1-3.6 1.9L164.2 287.7c-2.7 2.8-3.9 4.5-5.2 6.3-1.2 1.6-2.5 3.2-3.3 5-0.8 1.7-1.1 3.5-1.6 5.2-0.6 2.3-1.2 4.5-1.4 6.8l-0.3 558.3c0 47 37.7 85.2 83.9 85.2H792c46.3 0 83.9-38.2 83.9-85.2V149c0.1-46.9-37.5-85.1-83.8-85.1z" fill="#ffffff" p-id="21210"></path></svg>