<?xml version="1.0" standalone="no"?><!DOCTYPE svg PUBLIC "-//W3C//DTD SVG 1.1//EN" "http://www.w3.org/Graphics/SVG/1.1/DTD/svg11.dtd"><svg t="1634012932618" class="icon" viewBox="0 0 1029 1024" version="1.1" xmlns="http://www.w3.org/2000/svg" p-id="9131" xmlns:xlink="http://www.w3.org/1999/xlink" width="200.9765625" height="200"><defs><style type="text/css"></style></defs><path d="M854.109091 524.125091c-4.445091 0-8.285091-0.768-11.52-2.397091a23.528727 23.528727 0 0 1-8.075636-6.376727 28.672 28.672 0 0 1-4.957091-9.565091 44.427636 44.427636 0 0 1-1.931637-11.613091h-29.067636c-0.162909 8.820364 1.093818 16.663273 3.770182 23.458909 2.653091 6.818909 6.423273 12.567273 11.310545 17.268364 4.864 4.701091 10.775273 8.285091 17.757091 10.752 6.981818 2.443636 14.685091 3.700364 23.156364 3.700363 7.330909 0 14.359273-1.117091 21.108363-3.281454s12.730182-5.352727 17.873455-9.541818c5.189818-4.235636 9.309091-9.425455 12.404364-15.639273 3.095273-6.237091 4.631273-13.335273 4.631272-21.294546 0-8.704-2.373818-16.151273-7.098182-22.365091a32.814545 32.814545 0 0 0-19.618909-12.171636v-0.442182c7.051636-2.001455 12.334545-5.841455 15.825455-11.52 3.514182-5.655273 5.282909-12.171636 5.282909-19.549091 0-6.818909-1.489455-12.823273-4.514909-18.013091a43.52 43.52 0 0 0-11.729455-13.242181 50.757818 50.757818 0 0 0-16.244363-8.145455 62.603636 62.603636 0 0 0-18.082909-2.746182c-7.749818 0-14.801455 1.28-21.108364 3.816728s-11.729455 6.120727-16.244364 10.775272a48.570182 48.570182 0 0 0-10.565818 16.593455 66.676364 66.676364 0 0 0-4.212363 21.387636H831.255273c-0.139636-7.796364 1.768727-14.312727 5.725091-19.432727 3.933091-5.12 9.774545-7.703273 17.547636-7.703273 5.585455 0 10.542545 1.745455 14.848 5.189818 4.305455 3.490909 6.469818 8.471273 6.469818 15.010909a16.290909 16.290909 0 0 1-3.118545 10.426182 20.386909 20.386909 0 0 1-7.982546 5.981091 32.256 32.256 0 0 1-10.449454 2.466909 61.277091 61.277091 0 0 1-10.542546 0v21.736728c3.723636 0 7.633455 0.116364 11.706182 0.325818 4.096 0.209455 7.866182 1.024 11.310546 2.373818 3.421091 1.396364 6.283636 3.607273 8.494545 6.632727 2.234182 3.048727 3.351273 7.470545 3.351273 13.265455 0 7.377455-2.373818 13.195636-7.098182 17.477818a24.901818 24.901818 0 0 1-17.408 6.4zM182.016 321.536a69.050182 69.050182 0 0 1-10.216727 7.912727 321.163636 321.163636 0 0 0-10.589091 7.074909 777.541818 777.541818 0 0 0-18.432 13.242182 93.486545 93.486545 0 0 0-15.173818 14.219637 61.719273 61.719273 0 0 0-10.216728 17.477818c-2.490182 6.516364-3.770182 14.196364-3.770181 23.04H224.302545v-26.507637H153.041455c3.723636-5.213091 8.029091-9.774545 12.916363-13.684363 4.864-3.886545 9.914182-7.540364 15.057455-10.961455 5.189818-3.397818 10.309818-6.842182 15.406545-10.333091 5.096727-3.444364 9.634909-7.330909 13.661091-11.613091 4.026182-4.258909 7.261091-9.146182 9.704727-14.638545a48.64 48.64 0 0 0 3.653819-19.781818c0-7.354182-1.396364-14.056727-4.189091-19.968a44.706909 44.706909 0 0 0-11.310546-15.010909 50.734545 50.734545 0 0 0-16.477091-9.332364 59.741091 59.741091 0 0 0-19.688727-3.258182c-9.053091 0-17.035636 1.559273-24.017455 4.677818a46.941091 46.941091 0 0 0-17.314909 13.032728c-4.608 5.562182-8.052364 12.101818-10.333091 19.572363-2.304 7.447273-3.304727 15.499636-3.025454 24.203637h29.300364c0-4.049455 0.395636-8.145455 1.186909-12.264728s2.117818-7.889455 3.956363-11.287272a22.923636 22.923636 0 0 1 7.447273-8.238546 19.549091 19.549091 0 0 1 11.310545-3.141818c6.586182 0 12.008727 2.048 16.244364 6.190545 4.235636 4.119273 6.330182 9.890909 6.330182 17.268364 0 4.654545-1.024 8.750545-3.118546 12.381091a42.356364 42.356364 0 0 1-7.726545 9.728z m313.460364-134.260364h30.580363V35.211636h-24.32a33.373091 33.373091 0 0 1-5.399272 14.545455c-2.722909 3.909818-6.050909 7.051636-9.984 9.448727-3.956364 2.397091-8.401455 4.072727-13.381819 5.003637a69.538909 69.538909 0 0 1-15.383272 1.186909v23.249454h37.888v98.629818z m457.053091 771.188364H707.886545V704l0.023273-21.527273c0-4.770909 3.863273-8.680727 8.610909-8.680727h234.752c4.747636 0 8.610909 3.909818 8.610909 8.680727l1.070546 267.473455a8.448 8.448 0 0 1-8.424727 8.517818z m-889.530182-15.197091l1.070545-416.093091c0-4.701091 3.816727-8.517818 8.541091-8.517818h232.936727c4.724364 0 8.541091 3.816727 8.541091 8.517818l-0.232727 21.178182v403.339636H71.377455a8.378182 8.378182 0 0 1-8.378182-8.424727z m319.650909-632.738909a8.610909 8.610909 0 0 1 8.587636-8.680727h240.407273c4.724364 0 8.587636 3.886545 8.587636 8.680727v642.327273H382.650182v-642.327273z m576.069818 299.008H720.430545c-7.191273 0-14.103273 1.210182-20.57309 3.421091V296.261818c0-35.048727-28.183273-63.557818-62.789819-63.557818H385.815273c-34.629818 0-62.813091 28.509091-62.813091 63.557818v155.159273a64 64 0 0 0-20.573091-3.397818H64.162909a64.116364 64.116364 0 0 0-64.139636 63.953454v446.464c0 34.932364 28.183273 63.371636 62.789818 63.371637h897.233454c34.629818 0 62.789818-28.439273 62.789819-63.371637V673.978182a64.349091 64.349091 0 0 0-64.116364-64.442182z m0 0" p-id="9132" fill="#ffffff"></path></svg>