<?xml version="1.0" standalone="no"?><!DOCTYPE svg PUBLIC "-//W3C//DTD SVG 1.1//EN" "http://www.w3.org/Graphics/SVG/1.1/DTD/svg11.dtd"><svg t="1634012414515" class="icon" viewBox="0 0 1024 1024" version="1.1" xmlns="http://www.w3.org/2000/svg" p-id="3415" xmlns:xlink="http://www.w3.org/1999/xlink" width="200" height="200"><defs><style type="text/css"></style></defs><path d="M775.456 194.336a181.12 181.12 0 0 1 180.832 180.864V754.88a181.056 181.056 0 0 1-180.832 180.8H244.864A181.024 181.024 0 0 1 64 754.88V375.2a181.12 181.12 0 0 1 180.864-180.864h61.216c5.728-72.736 66.048-130.304 140.224-130.304h127.68c74.24 0 134.56 57.568 140.16 130.304h61.312z m108.48 560.512V375.2c0-55.744-42.432-101.28-96.576-107.296v425.6h25.536a36.16 36.16 0 0 1 0 72.32h-25.536v96.32c54.144-5.984 96.608-51.488 96.608-107.296z m-168.96-61.344V266.72H305.28v426.784h25.6a36.192 36.192 0 1 1 0 72.32h-25.6v97.568h409.696v-97.568h-25.536a36.16 36.16 0 1 1 0-72.32h25.536zM446.304 136.32c-34.24 0-62.56 25.216-67.904 58.016h263.456a68.864 68.864 0 0 0-67.84-58.016h-127.68zM232.96 693.504v-425.6c-54.176 6.048-96.64 51.584-96.64 107.328v379.68c0 55.776 42.464 101.248 96.64 107.296v-96.32h-25.6a36.16 36.16 0 1 1 0-72.352h25.6v-0.032z" p-id="3416" fill="#ffffff"></path></svg>