<?xml version="1.0" standalone="no"?><!DOCTYPE svg PUBLIC "-//W3C//DTD SVG 1.1//EN" "http://www.w3.org/Graphics/SVG/1.1/DTD/svg11.dtd"><svg t="1634015356638" class="icon" viewBox="0 0 1024 1024" version="1.1" xmlns="http://www.w3.org/2000/svg" p-id="25471" xmlns:xlink="http://www.w3.org/1999/xlink" width="200" height="200"><defs><style type="text/css"></style></defs><path d="M775.68 244.053333l-244.053333 351.146667 2.56 78.506667v0.426666c0 11.946667 9.386667 21.333333 21.333333 21.333334 4.266667 0 8.106667-1.28 11.52-3.413334-0.853333 0.426667-2.133333 1.28-2.986667 1.706667l73.386667-24.32 244.053333-351.573333-105.813333-73.813334z m-235.093333 414.72z m10.666666-5.546666c1.28-0.426667 2.986667-0.426667 4.266667-0.426667-1.706667 0-2.986667 0-4.266667 0.426667z m-7.68 2.986666c0.426667 0 0.853333-0.426667 0.853334-0.426666s-0.426667 0.426667-0.853334 0.426666z m3.413334-2.133333c0.853333-0.426667 1.28-0.426667 2.133333-0.426667-0.426667 0.426667-1.28 0.426667-2.133333 0.426667z m28.16 11.52c-2.133333-5.12-6.4-9.386667-11.52-11.52 5.12 2.56 9.386667 6.4 11.52 11.52z m-5.12 23.893333c-0.426667 0.426667-1.28 0.853333-1.706667 1.706667 0.426667-0.426667 0.853333-1.28 1.706667-1.706667z m0.853333-0.853333c0.853333-0.853333 1.28-1.706667 2.133333-2.56-0.853333 0.853333-1.28 1.706667-2.133333 2.56z m3.84-5.973333c-0.426667 1.28-0.853333 2.133333-1.706667 2.986666 0.853333-0.853333 1.28-1.706667 1.706667-2.986666z m1.706667-4.693334c0.426667-1.28 0.426667-2.56 0.426666-3.84 0 1.28-0.426667 2.56-0.426666 3.84z m-1.28 3.413334c0.426667-0.853333 0.426667-1.706667 0.853333-2.56 0 0.853333-0.426667 1.706667-0.853333 2.56z" fill="#ffffff" p-id="25472"></path><path d="M553.386667 670.72l-3.413334-8.533333c-0.426667 0.426667-0.853333 0.426667-1.28 0.853333l4.693334 7.68zM558.933333 686.08c0.426667 0 0.426667 0 0 0l-1.28-4.693333 1.28 4.693333z" fill="#ffffff" p-id="25473"></path><path d="M659.2 697.6l-83.626667 27.733333c-6.4 2.56-13.226667 3.84-20.053333 3.84-30.72 0-55.466667-24.746667-55.466667-55.466666l-2.986666-89.173334 270.08-388.266666 0.426666 0.426666 8.106667-11.52c-5.12-23.04-25.6-40.106667-49.92-40.106666H136.533333c-28.16 0-51.2 23.04-51.2 51.2v631.466666c0 28.16 23.04 51.2 51.2 51.2h588.8c28.16 0 51.2-23.04 51.2-51.2v-299.093333l-117.333333 168.96zM204.8 273.066667h341.333333c18.773333 0 34.133333 15.36 34.133334 34.133333s-15.36 34.133333-34.133334 34.133333H204.8c-18.773333 0-34.133333-15.36-34.133333-34.133333s15.36-34.133333 34.133333-34.133333z m187.733333 477.866666H204.8c-18.773333 0-34.133333-15.36-34.133333-34.133333s15.36-34.133333 34.133333-34.133333h187.733333c18.773333 0 34.133333 15.36 34.133334 34.133333s-15.36 34.133333-34.133334 34.133333z m68.266667-204.8H204.8c-18.773333 0-34.133333-15.36-34.133333-34.133333s15.36-34.133333 34.133333-34.133333h256c18.773333 0 34.133333 15.36 34.133333 34.133333s-15.36 34.133333-34.133333 34.133333zM555.52 674.133333zM925.866667 226.56l-79.786667-55.466667c-7.253333-5.12-17.066667-2.986667-21.76 3.84l-1.706667 2.56-21.76 31.146667L906.666667 281.6l14.08-20.053333 1.706666-2.133334 4.266667-6.4 3.413333-5.12c4.693333-6.826667 2.56-16.64-4.266666-21.333333z" fill="#ffffff" p-id="25474"></path></svg>