<?xml version="1.0" standalone="no"?><!DOCTYPE svg PUBLIC "-//W3C//DTD SVG 1.1//EN" "http://www.w3.org/Graphics/SVG/1.1/DTD/svg11.dtd"><svg t="1634293302552" class="icon" viewBox="0 0 1024 1024" version="1.1" xmlns="http://www.w3.org/2000/svg" p-id="20948" xmlns:xlink="http://www.w3.org/1999/xlink" width="200" height="200"><defs><style type="text/css"></style></defs><path d="M320 538.666667a42.666667 42.666667 0 0 1-42.666667-42.666667v-24.064c0-119.509333 19.754667-165.12 23.68-173.056 5.546667-11.136 15.744-19.328 27.818667-22.357333A829.866667 829.866667 0 0 1 512 256c100.138667 0 179.84 19.712 183.168 20.522667 12.074667 3.029333 22.229333 11.221333 27.818667 22.357333 3.968 7.936 23.68 52.650667 23.68 153.813333v38.485334h-85.333334v-38.485334c0-48.384-5.248-80.128-9.514666-98.133333A780.970667 780.970667 0 0 0 512 341.333333c-59.136 0-110.976 7.850667-139.434667 13.184-4.266667 19.541333-9.898667 56.661333-9.898666 117.418667v24.064a42.666667 42.666667 0 0 1-42.666667 42.666667" fill="#1296db" p-id="20949"></path><path d="M170.666667 768v-119.424c0-39.296 26.538667-73.386667 64.554666-82.773333C295.04 550.997333 391.68 533.333333 512 533.333333c120.32 0 216.917333 17.664 276.821333 32.426667A85.034667 85.034667 0 0 1 853.333333 648.618667V768H170.666667zM789.333333 170.666667c23.552 0 42.666667 19.157333 42.666667 42.666666v277.12a168.234667 168.234667 0 0 0-22.698667-7.466666c-64.512-16-168.405333-34.986667-297.301333-34.986667s-232.832 18.986667-297.301333 34.986667c-7.850667 1.877333-15.36 4.48-22.698667 7.466666V213.333333c0-23.509333 19.157333-42.666667 42.666667-42.666666h554.666666z m128 42.666666c0-70.613333-57.429333-128-128-128h-554.666666c-70.613333 0-128 57.386667-128 128v352.426667c-13.653333 24.746667-21.333333 52.992-21.333334 82.816V981.333333h85.333334v-128h85.333333v42.666667h85.333333v-42.666667h341.333334v42.666667h85.333333v-42.666667h85.333333v128h85.333334v-332.757333c0-29.824-7.68-58.112-21.333334-82.773333V213.333333z" fill="#1296db" p-id="20950"></path></svg>