<?xml version="1.0" standalone="no"?><!DOCTYPE svg PUBLIC "-//W3C//DTD SVG 1.1//EN" "http://www.w3.org/Graphics/SVG/1.1/DTD/svg11.dtd"><svg t="1629890280228" class="icon" viewBox="0 0 1024 1024" version="1.1" xmlns="http://www.w3.org/2000/svg" p-id="3957" xmlns:xlink="http://www.w3.org/1999/xlink" width="200" height="200"><defs><style type="text/css"></style></defs><path d="M513.14688 121.69216c88.55552-0.08192 162.65216 67.54304 171.04896 156.18048 8.3968 88.63744-51.69152 169.12384-138.6496 185.83552v46.20288h257.4336c35.55328 0 64.34816 28.95872 64.34816 64.7168l-0.04096 68.8128c62.75072 16.34304 103.58784 77.04576 95.35488 141.68064-8.23296 64.63488-62.99648 113.0496-127.7952 112.96768-64.79872-0.08192-119.48032-48.57856-127.5904-113.21344-8.11008-64.63488 32.89088-125.25568 95.6416-141.5168v-47.18592c0-10.93632-8.15104-20.15232-18.96448-21.42208l-2.49856-0.16384h-235.97056v68.8128c62.75072 16.384 103.58784 77.08672 95.31392 141.7216-8.23296 64.63488-63.03744 113.00864-127.83616 112.92672-64.79872-0.08192-119.43936-48.61952-127.54944-113.2544-8.06912-64.67584 32.93184-125.25568 95.68256-141.47584v-68.73088h-235.9296c-10.89536 0-20.02944 8.192-21.2992 19.0464l-0.16384 2.53952-0.04096 47.26784c62.75072 16.384 103.54688 77.12768 95.27296 141.76256-8.27392 64.63488-63.0784 113.00864-127.87712 112.88576-64.79872-0.12288-119.43936-48.66048-127.50848-113.29536-8.06912-64.67584 32.9728-125.25568 95.76448-141.43488v-68.73088c0-35.71712 28.83584-64.7168 64.34816-64.7168h257.35168v-46.12096c-86.95808-16.54784-147.16928-97.03424-138.8544-185.7536 8.27392-88.6784 82.41152-156.42624 171.008-156.34432z m0 582.32832c-35.55328 0-64.34816 28.95872-64.34816 64.7168 0 35.71712 28.79488 64.7168 64.34816 64.7168S577.536 804.4544 577.536 768.69632c0-35.71712-28.83584-64.67584-64.38912-64.67584z m321.82272 0c-35.55328 0-64.34816 28.95872-64.34816 64.7168 0 35.71712 28.79488 64.7168 64.34816 64.7168s64.34816-28.95872 64.34816-64.7168-28.83584-64.7168-64.34816-64.7168z m-643.60448 0c-35.55328 0-64.34816 28.95872-64.34816 64.7168 0 35.71712 28.79488 64.7168 64.34816 64.7168s64.34816-28.95872 64.34816-64.7168-28.79488-64.7168-64.34816-64.7168zM513.14688 186.368c-38.33856 0-73.728 20.56192-92.89728 53.90336a108.314624 108.314624 0 0 0 0 107.84768c19.16928 33.3824 54.55872 53.90336 92.89728 53.90336 59.22816 0 107.27424-48.29184 107.27424-107.84768s-48.00512-107.76576-107.27424-107.80672z m0 0" p-id="3958" fill="#ffffff"></path></svg>