<?xml version="1.0" standalone="no"?><!DOCTYPE svg PUBLIC "-//W3C//DTD SVG 1.1//EN" "http://www.w3.org/Graphics/SVG/1.1/DTD/svg11.dtd"><svg t="1629890190500" class="icon" viewBox="0 0 1024 1024" version="1.1" xmlns="http://www.w3.org/2000/svg" p-id="3026" width="200" height="200" xmlns:xlink="http://www.w3.org/1999/xlink"><defs><style type="text/css"></style></defs><path d="M510.037333 213.333333a149.333333 149.333333 0 0 1 149.333334 149.333334v42.666666a149.333333 149.333333 0 0 1-298.666667 0v-42.666666a149.333333 149.333333 0 0 1 149.333333-149.333334z m-102.485333 354.389334A191.104 191.104 0 0 0 510.037333 597.333333a191.104 191.104 0 0 0 102.464-29.610666 405.162667 405.162667 0 0 1 196.202667 118.250666V746.666667a42.666667 42.666667 0 0 1-42.666667 42.666666h-512a42.666667 42.666667 0 0 1-42.666666-42.666666v-60.693334a405.162667 405.162667 0 0 1 196.181333-118.250666z" fill="#ffffff" p-id="3027"></path></svg>