<?xml version="1.0" standalone="no"?><!DOCTYPE svg PUBLIC "-//W3C//DTD SVG 1.1//EN" "http://www.w3.org/Graphics/SVG/1.1/DTD/svg11.dtd"><svg t="1629891482215" class="icon" viewBox="0 0 1024 1024" version="1.1" xmlns="http://www.w3.org/2000/svg" p-id="12479" xmlns:xlink="http://www.w3.org/1999/xlink" width="200" height="200"><defs><style type="text/css"></style></defs><path d="M959.860044 319.900031H480.009997V255.920025h415.87004V63.980006H224.089972a95.970009 95.970009 0 0 0 0 191.940019h60.141206v63.980006H224.089972A159.950016 159.950016 0 0 1 224.089972 0h735.770072z" p-id="12480" fill="#ffffff"></path><path d="M512 731.611371l-127.960012-85.413308-127.960013 85.413308V127.960012h255.920025zM320.059981 191.940019v420.028741l63.980007-42.546704 63.980006 42.546704V191.940019z" p-id="12481" fill="#ffffff"></path><path d="M959.860044 1023.6801H224.089972a159.950016 159.950016 0 0 1-159.950016-159.950016V159.950016h63.980007v703.780068a95.970009 95.970009 0 0 0 95.970009 95.97001h671.790065V287.910028h63.980007zM480.009997 127.960012h447.860044v63.980007H480.009997z" p-id="12482" fill="#ffffff"></path></svg>