<?xml version="1.0" standalone="no"?><!DOCTYPE svg PUBLIC "-//W3C//DTD SVG 1.1//EN" "http://www.w3.org/Graphics/SVG/1.1/DTD/svg11.dtd"><svg t="1629887215178" class="icon" viewBox="0 0 1024 1024" version="1.1" xmlns="http://www.w3.org/2000/svg" p-id="10393" xmlns:xlink="http://www.w3.org/1999/xlink" width="200" height="200"><defs><style type="text/css"></style></defs><path d="M942.1 982.9H81.9c-22.5 0-41-18.4-41-41 0-22.5 18.4-41 41-41h860.2c22.5 0 41 18.4 41 41-0.1 22.5-18.5 41-41 41z" p-id="10394" fill="#ffffff"></path><path d="M860.2 407.1c22.5 0 41 18.4 41 41v493.8c0 22.5-18.4 41-41 41-22.5 0-41-18.4-41-41V448.1c0-22.5 18.4-41 41-41zM616.7 982.8H119.5V316.5c0-47.5 24.3-91.5 62-112.1l276-150.9c33.5-18.3 74-16.3 105.7 5.2 33 22.3 53.4 63.2 53.4 106.8v817.3z m-415.3-81.9h333.4V165.6c0-16.5-6.8-31.8-17.4-39-6.6-4.5-13.7-4.9-20.6-1.2l-276 150.9c-11.4 6.2-19.4 22.7-19.4 40.2v584.4z" p-id="10395" fill="#ffffff"></path><path d="M459.6 441.7l-149.7 66.6c-20.6 9.2-44.9-0.2-54.1-20.8-9.2-20.6 0.2-44.9 20.8-54.1l149.7-66.6c20.6-9.2 44.9 0.2 54.1 20.8 9.1 20.6-0.3 44.9-20.8 54.1zM459.6 666.9l-149.7 66.6c-20.6 9.2-44.9-0.2-54.1-20.8-9.2-20.6 0.2-44.9 20.8-54.1L426.3 592c20.6-9.2 44.9 0.2 54.1 20.8 9.1 20.6-0.3 45-20.8 54.1zM843.5 485.5l-112.3-50c-20.6-9.2-29.9-33.5-20.8-54.1 9.2-20.6 33.5-29.9 54.1-20.8l112.3 50c20.6 9.2 29.9 33.5 20.8 54.1-9.2 20.7-33.5 30-54.1 20.8z" p-id="10396" fill="#ffffff"></path></svg>