<?xml version="1.0" standalone="no"?><!DOCTYPE svg PUBLIC "-//W3C//DTD SVG 1.1//EN" "http://www.w3.org/Graphics/SVG/1.1/DTD/svg11.dtd"><svg t="1629892848542" class="icon" viewBox="0 0 1024 1024" version="1.1" xmlns="http://www.w3.org/2000/svg" p-id="14639" xmlns:xlink="http://www.w3.org/1999/xlink" width="200" height="200"><defs><style type="text/css"></style></defs><path d="M793.568 148.608c0-20.352-16.8-36.928-37.664-36.928h-94.08v36.928c0 20.384-16.8 36.896-37.632 36.896H304.288a37.28 37.28 0 0 1-37.632-36.896V111.68H153.76c-20.8 0-37.632 16.576-37.632 36.928V849.92c0 20.384 16.832 36.896 37.632 36.896h301.088l75.232 73.888H116.096c-41.568 0-75.264-33.12-75.264-73.888V111.68c0-40.768 33.696-73.824 75.264-73.824h150.56C266.656 17.472 283.488 0.96 304.288 0.96h319.904c20.8 0 37.632 16.512 37.632 36.896h131.744c41.568 0 75.296 33.056 75.296 73.824v452.288l-75.296-36.896V148.608z m-169.376 258.368H285.472a18.656 18.656 0 0 1-18.816-18.464v-18.464c0-10.176 8.416-18.464 18.816-18.464h338.688c10.336 0 18.848 8.288 18.848 18.464v18.464a18.656 18.656 0 0 1-18.816 18.464z m18.848 184.576a18.72 18.72 0 0 1-18.848 18.432H285.472a18.656 18.656 0 0 1-18.816-18.432v-18.496a18.56 18.56 0 0 1 18.816-18.4h338.688c10.336 0 18.848 8.192 18.848 18.4v18.496h0.032z" p-id="14640" fill="#ffffff"></path><path d="M785.952 576.128a149.76 149.76 0 1 0 0 299.456 149.76 149.76 0 0 0 0-299.456z m54.304 227.488l-54.688-30.112-55.008 29.568 11.648-61.312-45.024-43.2 61.92-7.808 27.136-56.224 26.624 56.48 61.856 8.416-45.504 42.784 11.04 61.408z" p-id="14641" fill="#ffffff"></path><path d="M653.696 829.696l-64.992 131.808 81.92-6.688 43.104 68.256 63.616-129.088a168.352 168.352 0 0 1-123.648-64.288zM918.144 829.696l64.96 131.808-81.92-6.688-43.072 68.256-63.584-129.088a168.128 168.128 0 0 0 123.616-64.288z" p-id="14642" fill="#ffffff"></path></svg>