<?xml version="1.0" standalone="no"?><!DOCTYPE svg PUBLIC "-//W3C//DTD SVG 1.1//EN" "http://www.w3.org/Graphics/SVG/1.1/DTD/svg11.dtd"><svg t="1629895113583" class="icon" viewBox="0 0 1024 1024" version="1.1" xmlns="http://www.w3.org/2000/svg" p-id="5043" xmlns:xlink="http://www.w3.org/1999/xlink" width="200" height="200"><defs><style type="text/css"></style></defs><path d="M216.847059 249.976471h421.647059c24.094118 0 42.164706 18.070588 42.164706 42.164705S662.588235 331.294118 638.494118 331.294118h-421.647059c-24.094118 0-42.164706-18.070588-42.164706-42.164706s18.070588-39.152941 42.164706-39.152941z m0 331.294117h421.647059c24.094118 0 42.164706 18.070588 42.164706 42.164706 0 24.094118-18.070588 42.164706-42.164706 42.164706h-421.647059c-24.094118 0-42.164706-18.070588-42.164706-42.164706 0-24.094118 18.070588-42.164706 42.164706-42.164706z m0-165.647059h421.647059c24.094118 0 42.164706 18.070588 42.164706 42.164706 0 24.094118-18.070588 42.164706-42.164706 42.164706h-421.647059c-24.094118 0-42.164706-18.070588-42.164706-42.164706 0-24.094118 18.070588-42.164706 42.164706-42.164706zM888.470588 1024H304.188235c-57.223529 0-102.4-45.176471-102.4-102.4v-63.247059H135.529412c-57.223529 0-102.4-45.176471-102.4-102.4V156.611765c0-57.223529 45.176471-102.4 102.4-102.4h66.258823v84.329411H117.458824v635.482353h617.411764V138.541176h-84.329412V54.211765h66.258824c57.223529 0 102.4 45.176471 102.4 102.4v63.247059h66.258824c57.223529 0 102.4 45.176471 102.4 102.4v599.341176c3.011765 57.223529-45.176471 102.4-99.388236 102.4z m18.070588-719.811765h-84.329411v451.764706c0 57.223529-45.176471 102.4-102.4 102.4H286.117647v84.329412H903.529412V304.188235zM554.164706 84.329412H301.176471c-24.094118 0-42.164706-18.070588-42.164706-42.164706S277.082353 0 301.176471 0h252.988235c24.094118 0 42.164706 18.070588 42.164706 42.164706s-18.070588 42.164706-42.164706 42.164706z" p-id="5044" fill="#ffffff"></path></svg>