<?xml version="1.0" standalone="no"?><!DOCTYPE svg PUBLIC "-//W3C//DTD SVG 1.1//EN" "http://www.w3.org/Graphics/SVG/1.1/DTD/svg11.dtd"><svg t="1635327249960" class="icon" viewBox="0 0 1024 1024" version="1.1" xmlns="http://www.w3.org/2000/svg" p-id="1886" xmlns:xlink="http://www.w3.org/1999/xlink" width="200" height="200"><defs><style type="text/css"></style></defs><path d="M243.279644 609.6896c4.869689 63.249067 121.639822 175.160889 267.605334 175.160889s262.735644-116.770133 267.605333-175.160889a723.717689 723.717689 0 0 1-267.605333 48.651378 723.717689 723.717689 0 0 1-267.605334-48.651378z m481.6896-233.551644c-72.988444-34.053689-141.084444-131.367822-214.084266-131.367823s-141.084444 97.314133-214.084267 126.509511c-87.586133 38.923378-126.509511 38.923378-126.509511 63.249067 0 19.467378 38.923378 53.475556 48.651378 68.118756s9.728 29.195378 9.728 48.651377c102.172444 38.923378 282.168889 43.793067 282.168889 43.793067s180.030578 0 282.168889-38.923378a87.734044 87.734044 0 0 1 9.728-48.651377c9.728-14.597689 48.651378-48.651378 48.651377-68.118756 0-29.195378-38.923378-29.195378-126.509511-63.249067z m-165.432888 136.237511l-48.651378-38.923378-48.651378 38.923378 19.467378-63.249067-53.475556-38.923378h63.249067l19.467378-63.249066 19.467377 63.249066h63.135289l-48.651377 38.923378z" fill="#ffffff" p-id="1887"></path></svg>