<?xml version="1.0" standalone="no"?><!DOCTYPE svg PUBLIC "-//W3C//DTD SVG 1.1//EN" "http://www.w3.org/Graphics/SVG/1.1/DTD/svg11.dtd"><svg t="1634013304033" class="icon" viewBox="0 0 1024 1024" version="1.1" xmlns="http://www.w3.org/2000/svg" p-id="13610" xmlns:xlink="http://www.w3.org/1999/xlink" width="200" height="200"><defs><style type="text/css"></style></defs><path d="M307.35 675.27l203.93 110.47 203.93-110.47c18.54-10.04 41.7-3.15 51.75 15.38 10.04 18.54 3.15 41.7-15.38 51.75l-240.3 130.18-240.3-130.18c-18.54-10.04-25.42-33.21-15.38-51.75 10.05-18.54 33.21-25.43 51.75-15.38z m210.42-445.72c-4-2.37-8.98-2.37-12.98 0l-293.44 173.9 293.45 173.9c4 2.37 8.98 2.37 12.98 0l293.45-173.9-293.46-173.9z m392.06 153.21a37.999 37.999 0 0 1 6.09 20.69v229.04c0 21.08-17.1 38.17-38.17 38.17-21.09 0-38.17-17.09-38.17-38.17v-157.1L556.69 643.03a89.085 89.085 0 0 1-90.82 0L131.79 445.04c-22.97-13.62-30.56-43.28-16.94-66.25a48.303 48.303 0 0 1 16.94-16.94l334.08-197.98a89.085 89.085 0 0 1 90.82 0l334.08 197.98c8.62 5.11 15.08 12.48 19.06 20.91z" fill="#ffffff" p-id="13611"></path></svg>