<?xml version="1.0" standalone="no"?><!DOCTYPE svg PUBLIC "-//W3C//DTD SVG 1.1//EN" "http://www.w3.org/Graphics/SVG/1.1/DTD/svg11.dtd"><svg t="1634015981819" class="icon" viewBox="0 0 1024 1024" version="1.1" xmlns="http://www.w3.org/2000/svg" p-id="32213" xmlns:xlink="http://www.w3.org/1999/xlink" width="200" height="200"><defs><style type="text/css"></style></defs><path d="M896 112a16 16 0 0 1 16 16v768a16 16 0 0 1-16 16H128a16 16 0 0 1-16-16V128a16 16 0 0 1 16-16h768m0-48H128a64 64 0 0 0-64 64v768a64 64 0 0 0 64 64h768a64 64 0 0 0 64-64V128a64 64 0 0 0-64-64z" fill="#B8B8B8" p-id="32214"></path><path d="M64 320h896v48H64zM64 624h896v48H64z" fill="#B8B8B8" p-id="32215"></path><path d="M320 960V320h48v640zM640 960V320h48v640z" fill="#B8B8B8" p-id="32216"></path><path d="M176 176m24 0l192 0q24 0 24 24l0 0q0 24-24 24l-192 0q-24 0-24-24l0 0q0-24 24-24Z" fill="#B8B8B8" p-id="32217"></path><path d="M480 176m24 0l320 0q24 0 24 24l0 0q0 24-24 24l-320 0q-24 0-24-24l0 0q0-24 24-24Z" fill="#B8B8B8" p-id="32218"></path></svg>