<?xml version="1.0" standalone="no"?><!DOCTYPE svg PUBLIC "-//W3C//DTD SVG 1.1//EN" "http://www.w3.org/Graphics/SVG/1.1/DTD/svg11.dtd"><svg t="1634014960758" class="icon" viewBox="0 0 1024 1024" version="1.1" xmlns="http://www.w3.org/2000/svg" p-id="22611" xmlns:xlink="http://www.w3.org/1999/xlink" width="200" height="200"><defs><style type="text/css"></style></defs><path d="M512 983.04a471.04 471.04 0 1 1 471.04-471.04 471.6544 471.6544 0 0 1-471.04 471.04z m0-860.16a389.12 389.12 0 1 0 389.12 389.12 389.632 389.632 0 0 0-389.12-389.12z" fill="#ffffff" p-id="22612"></path><path d="M668.3648 269.9264l-178.688 96.0512 204.3904 105.1648-25.7024-201.216z" fill="#ffffff" p-id="22613"></path><path d="M208.1792 822.5792l-73.3184-36.6592 171.8272-343.6544 134.4512 165.2736 114.176-211.1488 72.0896 39.0144-172.544 318.976-131.6864-161.9968-114.9952 230.1952z" fill="#ffffff" p-id="22614"></path></svg>