<?xml version="1.0" standalone="no"?><!DOCTYPE svg PUBLIC "-//W3C//DTD SVG 1.1//EN" "http://www.w3.org/Graphics/SVG/1.1/DTD/svg11.dtd"><svg t="1634292925254" class="icon" viewBox="0 0 1056 1024" version="1.1" xmlns="http://www.w3.org/2000/svg" p-id="16319" xmlns:xlink="http://www.w3.org/1999/xlink" width="206.25" height="200"><defs><style type="text/css"></style></defs><path d="M512 96c229.76 0 416 186.24 416 416s-186.24 416-416 416S96 741.76 96 512 282.24 96 512 96z m0 480c-105.024 0-192 99.424-192 224 0 2.24-0.224 4.48-0.672 6.624A350.24 350.24 0 0 0 512 864c71.136 0 137.344-21.12 192.704-57.376A30.272 30.272 0 0 1 704 800c0-124.576-86.976-224-192-224z m0-416C317.6 160 160 317.6 160 512c0 95.04 37.664 181.312 98.912 244.64 14.72-109.6 84.352-199.552 177.152-231.808a160 160 0 1 1 151.84 0.064c92.832 32.192 162.464 122.144 177.216 231.712A350.784 350.784 0 0 0 864 512c0-194.4-157.6-352-352-352z m0 128a96 96 0 1 0 0 192 96 96 0 0 0 0-192z" fill="#1296db" fill-opacity=".65" p-id="16320"></path></svg>