<?xml version="1.0" standalone="no"?><!DOCTYPE svg PUBLIC "-//W3C//DTD SVG 1.1//EN" "http://www.w3.org/Graphics/SVG/1.1/DTD/svg11.dtd"><svg t="1634014845002" class="icon" viewBox="0 0 1024 1024" version="1.1" xmlns="http://www.w3.org/2000/svg" p-id="21013" xmlns:xlink="http://www.w3.org/1999/xlink" width="200" height="200"><defs><style type="text/css"></style></defs><path d="M895.310547 219.60151c0-6.315846-2.328022-10.881838-7.077186-15.046694L737.897402 71.822792c-3.560082-3.742231-8.582469-6.832615-14.150278-6.832615L150.042783 64.990177c-10.786671 0-21.376866 10.508331-21.376866 21.314445l0 852.832596c0 10.809183 10.595312 17.844413 21.376866 17.844413l724.879412 0c10.778484 0 20.334117-8.704243 20.334117-19.516496C895.256312 677.900447 895.384225 479.165174 895.310547 219.60151zM742.393809 127.926578l83.385129 72.953545-83.433224 0L742.393809 127.926578zM856.894609 915.169339 168.777473 915.169339l-0.102331-811.851229 535.432689 0 0.060375 117.120464c0.014326 10.807137 8.718569 20.511149 19.497053 20.449751l133.229351-0.803295L856.894609 915.169339z" p-id="21014" fill="#ffffff"></path><path d="M754.519987 758.238171 594.920036 758.238171c-22.043039 0-21.913079 31.359218 0.12382 31.359218l159.597905 0C776.6848 789.597389 776.563026 758.238171 754.519987 758.238171z" p-id="21015" fill="#ffffff"></path><path d="M407.766542 312.242444 696.9672 312.242444c27.874861 0 27.874861-45.296649 0-45.296649L407.766542 266.945795C379.891681 266.945795 379.891681 312.242444 407.766542 312.242444z" p-id="21016" fill="#ffffff"></path><path d="M348.696192 392.382669c-22.043039 0-22.158672 31.359218-0.122797 31.359218l406.319076 0c22.043039 0 22.172999-31.359218 0.12382-31.359218L348.696192 392.382669z" p-id="21017" fill="#ffffff"></path><path d="M756.20128 462.068797 348.533486 462.068797c-20.906146 0-20.906146 34.843576 0 34.843576l407.667793 0C777.106402 496.912373 777.106402 462.068797 756.20128 462.068797z" p-id="21018" fill="#ffffff"></path><path d="M330.268494 780.675182c-5.057179 0.654916-9.882068 1.252527-14.69263 1.116427l-18.817578 65.528436 32.604582-6.696516 24.901133 22.138206 15.311731-61.812811C345.300862 795.742343 349.057419 778.253016 330.268494 780.675182z" p-id="21019" fill="#ffffff"></path><path d="M476.897016 660.805094c0-13.08604 14.011108-26.091238 9.078773-38.401612-3.01466-12.603039-21.797445-14.598486-29.283953-24.921599-7.66968-10.590196-3.967358-29.358655-15.182794-36.422538-9.819646-8.411577-26.193569 1.034563-38.300304-2.905166-12.412704-4.043083-20.429285-21.417799-33.639145-20.519336-12.882402-1.02126-20.578688 16.265452-32.692586 20.211321-12.412704 4.043083-29.079292-5.287423-39.239699 3.213181-11.024078 6.771217-7.125281 25.288966-14.604626 35.619242-7.66968 10.583033-26.629497 12.848633-29.854958 25.724895-4.953825 11.963473 9.071609 24.6494 9.071609 37.409005 0 13.0799-14.012132 26.085098-9.071609 38.402635 3.007497 12.597923 21.790282 14.597463 29.27679 24.921599 7.66968 10.582009 3.967358 29.351492 15.182794 36.415374 9.82067 8.4126 26.193569-1.033539 38.300304 2.913353 12.412704 4.034896 20.423145 21.409612 33.631982 20.511149 12.889565 1.020236 20.586874-16.264429 32.69975-20.212344 12.419867-4.042059 29.079292 5.29561 39.239699-3.212158 11.017938-6.770194 7.119141-25.288966 14.603603-35.613102 7.66968-10.589173 26.622334-12.855796 29.862121-25.723871C490.922451 686.244486 476.897016 673.559583 476.897016 660.805094zM369.569592 729.717603c-38.246069 0-69.244061-31.073716-69.244061-69.408813 0-38.341237 30.997991-69.413929 69.244061-69.413929 38.253232 0 69.258387 31.072693 69.258387 69.413929C438.827979 698.643887 407.822824 729.717603 369.569592 729.717603z" p-id="21020" fill="#ffffff"></path><path d="M376.407324 711.539592c69.687152 0 0-102.468766 0-102.468766C310.205553 609.070826 310.205553 711.539592 376.407324 711.539592z" p-id="21021" fill="#ffffff"></path><path d="M409.889903 785.542027c-7.321756 6.927783-14.07967 13.133112-24.335245 15.379269l15.318894 61.84044 24.90011-22.138206 32.604582 6.696516-18.816554-65.50797C417.566746 782.574439 420.383908 775.618003 409.889903 785.542027z" p-id="21022" fill="#ffffff"></path></svg>