<?xml version="1.0" standalone="no"?><!DOCTYPE svg PUBLIC "-//W3C//DTD SVG 1.1//EN" "http://www.w3.org/Graphics/SVG/1.1/DTD/svg11.dtd"><svg t="1634360734205" class="icon" viewBox="0 0 1024 1024" version="1.1" xmlns="http://www.w3.org/2000/svg" p-id="2679" xmlns:xlink="http://www.w3.org/1999/xlink" width="200" height="200"><defs><style type="text/css"></style></defs><path d="M848 73.6L775.04 64h-512l-72.96 9.6a32 32 0 0 0-28.16 32v202.88a32 32 0 0 0 28.16 32l76.8 9.6h512l72.96-9.6a32 32 0 0 0 28.16-32V105.6a32 32 0 0 0-32-32z m-35.84 206.72l-44.16 5.76H269.44l-44.8-5.76V133.76L264.96 128H768l42.88 5.76z" fill="#1296db" p-id="2680"></path><path d="M599.04 156.16a16 16 0 0 0-16 16v74.24a16 16 0 0 0 32 0V172.16a16 16 0 0 0-16-16zM704 156.16a16 16 0 0 0-16 16v74.24a16 16 0 0 0 32 0V172.16a16 16 0 0 0-16-16zM848 388.48l-72.96-9.6h-512l-72.96 9.6a32 32 0 0 0-28.16 32v202.88a32 32 0 0 0 28.16 32l76.8 9.6h512l72.96-9.6a32 32 0 0 0 28.16-32V420.48a32 32 0 0 0-32-32z m-35.84 206.72l-44.16 5.76H269.44L224 595.2V448l40.96-5.76H768l42.88 5.76z" fill="#1296db" p-id="2681"></path><path d="M599.04 471.04a16 16 0 0 0-16 16v74.24a16 16 0 0 0 32 0V487.04a16 16 0 0 0-16-16zM704 471.04a16 16 0 0 0-16 16v74.24a16 16 0 0 0 32 0V487.04a16 16 0 0 0-16-16zM848 704l-72.96-9.6h-512L188.16 704a32 32 0 0 0-28.16 32v203.52a32 32 0 0 0 28.16 32l76.8 9.6h512l72.96-9.6a32 32 0 0 0 28.16-32v-204.16a32 32 0 0 0-30.08-31.36z m-35.84 206.72l-40.96 5.76H269.44l-44.8-5.76v-147.2l40.96-5.76H768l42.88 5.76z" fill="#1296db" p-id="2682"></path><path d="M599.04 785.92a16 16 0 0 0-16 16v74.24a16 16 0 0 0 32 0v-74.24a16 16 0 0 0-16-16zM704 785.92a16 16 0 0 0-16 16v74.24a16 16 0 0 0 32 0v-74.24a16 16 0 0 0-16-16zM128 206.72a16 16 0 0 0 12.8-18.56 16 16 0 0 0-18.56-12.8l-48 9.6a16 16 0 0 0-12.8 16v272a16 16 0 0 0 12.8 16l48 9.6a16 16 0 0 0 0-32l-32.64-7.04V213.12zM970.88 184.32l-48-9.6a16 16 0 1 0-6.4 31.36l35.2 7.04v246.4l-35.2 7.04a16 16 0 0 0 0 32l48-9.6a16 16 0 0 0 12.8-16V200.32a16 16 0 0 0-6.4-16zM128 576a16 16 0 0 0 12.8-18.56 16 16 0 0 0-18.56-12.8l-48 9.6a16 16 0 0 0-12.8 16v272.64a16 16 0 0 0 12.8 16l48 9.6a16 16 0 0 0 0-32L89.6 832V584.32zM970.88 555.52l-48-9.6a16 16 0 1 0-6.4 31.36l35.2 7.04V832l-35.2 7.04a16 16 0 0 0 0 32l48-9.6a16 16 0 0 0 12.8-16V570.88a16 16 0 0 0-6.4-15.36z" fill="#1296db" p-id="2683"></path></svg>