<?xml version="1.0" standalone="no"?><!DOCTYPE svg PUBLIC "-//W3C//DTD SVG 1.1//EN" "http://www.w3.org/Graphics/SVG/1.1/DTD/svg11.dtd"><svg t="1629884715963" class="icon" viewBox="0 0 1024 1024" version="1.1" xmlns="http://www.w3.org/2000/svg" p-id="2333" xmlns:xlink="http://www.w3.org/1999/xlink" width="200" height="200"><defs><style type="text/css"></style></defs><path d="M640.08704 563.2a24.1664 24.1664 0 0 0-25.6 25.6v307.2a25.6 25.6 0 0 0 51.2 0v-307.2a24.1664 24.1664 0 0 0-25.6-25.6z" fill="#f4ea2a" p-id="2334"></path><path d="M512.08704 896a24.1664 24.1664 0 0 1 25.6-25.6h204.8a25.6 25.6 0 1 1 0 51.2h-204.8a24.1664 24.1664 0 0 1-25.6-25.6z" fill="#f4ea2a" p-id="2335"></path><path d="M0.08704 512a102.4 102.4 0 1 0 102.4-102.4 102.4 102.4 0 0 0-102.4 102.4z" fill="#f4ea2a" p-id="2336"></path><path d="M199.76704 614.4H204.88704a48.384 48.384 0 0 1 51.2 51.2v204.8a48.384 48.384 0 0 1-51.2 51.2H51.28704a48.384 48.384 0 0 1-51.2-51.2v-204.8a46.4896 46.4896 0 0 1 15.36-35.84A123.5456 123.5456 0 0 0 102.48704 665.6a104.2432 104.2432 0 0 0 97.28-51.2z" fill="#f4ea2a" p-id="2337"></path><path d="M921.68704 716.7488H358.48704a48.4864 48.4864 0 0 1-51.2-51.2v-460.8h665.6v460.8a48.4864 48.4864 0 0 1-51.2 51.2z m-384-204.8a25.6 25.6 0 0 0 0 51.2h358.4a25.6 25.6 0 1 0 0-51.2z m102.4-153.6a24.2688 24.2688 0 0 0-25.6 25.6 24.2176 24.2176 0 0 0 25.6 25.6h256a24.2176 24.2176 0 0 0 25.6-25.6 24.2688 24.2688 0 0 0-25.6-25.6z" fill="#f4ea2a" p-id="2338"></path><path d="M307.28704 153.6h665.6a51.2 51.2 0 0 1 0 102.4H307.28704a51.2 51.2 0 0 1 0-102.4z" fill="#f4ea2a" p-id="2339"></path><path d="M225.36704 711.68l179.2-179.2a25.344 25.344 0 1 1 35.84 35.84l-179.2 179.2a25.344 25.344 0 0 1-35.84-35.84z" fill="#f4ea2a" p-id="2340"></path></svg>