<?xml version="1.0" standalone="no"?><!DOCTYPE svg PUBLIC "-//W3C//DTD SVG 1.1//EN" "http://www.w3.org/Graphics/SVG/1.1/DTD/svg11.dtd"><svg t="1640423603902" class="icon" viewBox="0 0 1024 1024" version="1.1" xmlns="http://www.w3.org/2000/svg" p-id="7983" xmlns:xlink="http://www.w3.org/1999/xlink" width="200" height="200"><defs><style type="text/css"></style></defs><path d="M634.88 358.4c0 71.68-51.2 128-122.88 133.12C440.32 486.4 384 430.08 384 358.4c0-66.56 56.32-122.88 122.88-128 66.56 0 128 56.32 128 128z" p-id="7984"></path><path d="M686.08 199.68C588.8 102.4 435.2 102.4 337.92 199.68c-76.8 71.68-97.28 184.32-46.08 276.48 15.36 30.72 40.96 61.44 71.68 81.92l148.48 153.6 148.48-153.6c30.72-20.48 51.2-51.2 71.68-81.92 51.2-92.16 30.72-204.8-46.08-276.48z m-5.12 250.88c-15.36 25.6-35.84 46.08-56.32 61.44L512 624.64 399.36 512c-25.6-15.36-40.96-35.84-56.32-61.44s-20.48-51.2-20.48-81.92c0-102.4 87.04-184.32 189.44-184.32s184.32 81.92 189.44 184.32c0 30.72-10.24 56.32-20.48 81.92z" p-id="7985"></path><path d="M752.64 537.6c-5.12-5.12-10.24-5.12-15.36-5.12-15.36 0-30.72 10.24-30.72 30.72s10.24 30.72 30.72 30.72c61.44 25.6 102.4 66.56 102.4 102.4s-30.72 66.56-87.04 97.28c-76.8 30.72-153.6 51.2-235.52 46.08-81.92 0-163.84-15.36-235.52-46.08-56.32-25.6-87.04-61.44-87.04-97.28 0-20.48 10.24-35.84 25.6-51.2 20.48-20.48 46.08-35.84 76.8-51.2 0-5.12 10.24-15.36 10.24-30.72s-15.36-30.72-30.72-30.72c-5.12 0-10.24 0-15.36 5.12-35.84 15.36-66.56 35.84-97.28 61.44-25.6 25.6-40.96 56.32-40.96 92.16 0 56.32 40.96 112.64 117.76 148.48 81.92 35.84 174.08 56.32 266.24 51.2 92.16 0 179.2-15.36 266.24-51.2 76.8-35.84 117.76-92.16 117.76-148.48 5.12-61.44-46.08-117.76-138.24-153.6z" p-id="7986"></path></svg>