<?xml version="1.0" standalone="no"?><!DOCTYPE svg PUBLIC "-//W3C//DTD SVG 1.1//EN" "http://www.w3.org/Graphics/SVG/1.1/DTD/svg11.dtd"><svg t="1640423638664" class="icon" viewBox="0 0 1024 1024" version="1.1" xmlns="http://www.w3.org/2000/svg" p-id="8789" xmlns:xlink="http://www.w3.org/1999/xlink" width="200" height="200"><defs><style type="text/css"></style></defs><path d="M880.192 63.616h-736c-44.16 0-80 35.84-80 80v526.4c0 44.16 35.84 80 80 80h332.8v137.6H230.4a35.968 35.968 0 1 0 0 72h565.184a35.968 35.968 0 1 0 0-72H548.992v-137.6h331.2c44.16 0 80-35.84 80-80V143.616c0-44.16-35.84-80-80-80z m8 606.4a8 8 0 0 1-8 8h-736a8 8 0 0 1-8-8V143.616c0-4.416 3.584-8 8-8h736c4.416 0 8 3.584 8 8v526.4zM576.128 274.112H256a35.968 35.968 0 1 0 0 72h320.128a35.968 35.968 0 1 0 0-72z m-128 193.408H256A35.968 35.968 0 1 0 256 539.52h192a35.968 35.968 0 0 0 0.128-72z" fill="#303133" p-id="8790"></path></svg>